RobotoSerifTextWide-SuperWidth1400.ufo
<glyph name="period" format="2">
  <advance width="418.96000000000004"/>
  <unicode hex="002E"/>
  <outline>
    <contour>
      <point x="361.24" y="92.77600000000001" type="curve" smooth="yes"/>
      <point x="361.24" y="155.73600000000002"/>
      <point x="305.6" y="200.04"/>
      <point x="209.48000000000002" y="200.04" type="curve" smooth="yes"/>
      <point x="112.82000000000001" y="200.04"/>
      <point x="57.18" y="155.73600000000002"/>
      <point x="57.18" y="92.77600000000001" type="curve" smooth="yes"/>
      <point x="57.18" y="29.152"/>
      <point x="112.82000000000001" y="-14.32"/>
      <point x="209.48000000000002" y="-14.32" type="curve" smooth="yes"/>
      <point x="305.6" y="-14.32"/>
      <point x="361.24" y="29.152"/>
    </contour>
  </outline>
</glyph>
<glyph name="one" format="2">
  <advance width="665.8399999999999"/>
  <unicode hex="0031"/>
  <outline>
    <contour>
      <point x="515.08" y="120.43999999999998" type="curve" smooth="yes"/>
      <point x="515.08" y="609.0" type="line"/>
      <point x="274.74" y="609.0" type="line"/>
      <point x="234.26" y="560.4960000000001"/>
      <point x="182.15999999999997" y="533.336"/>
      <point x="47.56" y="532.168" type="curve"/>
      <point x="47.56" y="414.76" type="line"/>
      <point x="159.38" y="413.592"/>
      <point x="225.64000000000004" y="438.768"/>
      <point x="259.04" y="521.376" type="curve"/>
      <point x="244.88" y="533.544"/>
      <point x="250.95999999999998" y="523.2239999999999"/>
      <point x="234.26" y="513.704" type="curve"/>
      <point x="234.26" y="120.43999999999998" type="line" smooth="yes"/>
      <point x="234.26" y="83.11999999999999"/>
      <point x="174.54000000000002" y="76.11999999999999"/>
      <point x="105.73999999999998" y="76.11999999999999" type="curve" smooth="yes"/>
      <point x="71.34" y="76.11999999999999" type="line"/>
      <point x="71.34" y="0.0" type="line"/>
      <point x="662.3" y="0.0" type="line"/>
      <point x="662.3" y="76.11999999999999" type="line"/>
      <point x="643.0600000000001" y="76.11999999999999" type="line" smooth="yes"/>
      <point x="568.1800000000001" y="76.11999999999999"/>
      <point x="515.08" y="83.11999999999999"/>
    </contour>
  </outline>
</glyph>
<glyph name="three" format="2">
  <advance width="665.8399999999999"/>
  <unicode hex="0033"/>
  <outline>
    <contour>
      <point x="280.81999999999994" y="3.279999999999994" type="curve" smooth="yes"/>
      <point x="350.61999999999995" y="3.279999999999994"/>
      <point x="387.56000000000006" y="44.296"/>
      <point x="387.56000000000006" y="121.15199999999999" type="curve" smooth="yes"/>
      <point x="387.56000000000006" y="189.84799999999998"/>
      <point x="367.31999999999994" y="240.856"/>
      <point x="253.5" y="240.856" type="curve" smooth="yes"/>
      <point x="200.85999999999996" y="240.856" type="line"/>
      <point x="200.85999999999996" y="326.144" type="line"/>
      <point x="238.8" y="326.144" type="line" smooth="yes"/>
      <point x="337.46" y="326.144"/>
      <point x="375.94000000000005" y="363.17886372881946"/>
      <point x="375.94000000000005" y="447.82399999999996" type="curve" smooth="yes"/>
      <point x="375.94000000000005" y="505.86400000000003"/>
      <point x="353.1600000000001" y="529.048"/>
      <point x="313.68" y="529.048" type="curve" smooth="yes"/>
      <point x="275.74" y="529.048"/>
      <point x="249.9600000000001" y="507.84044191988363"/>
      <point x="231.71999999999997" y="482.32000000000005" type="curve"/>
      <point x="227.17999999999998" y="490.368"/>
      <point x="227.18" y="535.664"/>
      <point x="265.12" y="538.832" type="curve"/>
      <point x="265.12" y="423.67999999999995" type="line"/>
      <point x="60.72000000000001" y="423.67999999999995" type="line"/>
      <point x="60.72000000000001" y="542.136" type="line"/>
      <point x="112.82" y="581.3002414767906"/>
      <point x="210.48" y="618.0"/>
      <point x="342.53999999999996" y="618.0" type="curve" smooth="yes"/>
      <point x="500.38" y="618.0"/>
      <point x="633.9800000000001" y="566.312"/>
      <point x="633.9800000000001" y="450.672" type="curve" smooth="yes"/>
      <point x="633.9800000000001" y="330.368"/>
      <point x="464.98" y="276.84"/>
      <point x="253.5" y="276.84" type="curve"/>
      <point x="274.74" y="295.16" type="line"/>
      <point x="545.94" y="295.16"/>
      <point x="653.6800000000001" y="225.976"/>
      <point x="653.6800000000001" y="113.664" type="curve" smooth="yes"/>
      <point x="653.6800000000001" y="-19.479999999999997"/>
      <point x="509.0" y="-90.0"/>
      <point x="329.38000000000005" y="-90.0" type="curve" smooth="yes"/>
      <point x="136.60000000000002" y="-90.0"/>
      <point x="52.1" y="-15.344000000000001"/>
      <point x="14.160000000000004" y="74.16" type="curve"/>
      <point x="121.44000000000003" y="127.63999999999999" type="line"/>
      <point x="148.76" y="75.44799999999998"/>
      <point x="190.24" y="3.279999999999994"/>
    </contour>
  </outline>
</glyph>
<glyph name="F" format="2">
  <advance width="748"/>
  <unicode hex="0046"/>
  <outline>
    <contour>
      <point x="398.18000000000006" y="623.544" type="line"/>
      <point x="483.68000000000006" y="623.544" type="line" smooth="yes"/>
      <point x="542.4" y="623.544"/>
      <point x="583.8800000000001" y="616.544"/>
      <point x="587.42" y="580.544" type="curve" smooth="yes"/>
      <point x="594.5" y="503.024" type="line"/>
      <point x="720.48" y="503.024" type="line"/>
      <point x="720.48" y="710.0" type="line"/>
      <point x="26.319999999999993" y="710.0" type="line"/>
      <point x="26.319999999999993" y="633.88" type="line"/>
      <point x="37.94" y="633.88" type="line" smooth="yes"/>
      <point x="67.8" y="633.88"/>
      <point x="89.03999999999999" y="626.88"/>
      <point x="89.03999999999999" y="597.88" type="curve" smooth="yes"/>
      <point x="89.03999999999999" y="112.11999999999999" type="line" smooth="yes"/>
      <point x="89.03999999999999" y="83.11999999999999"/>
      <point x="67.8" y="76.11999999999999"/>
      <point x="37.94" y="76.11999999999999" type="curve" smooth="yes"/>
      <point x="26.319999999999993" y="76.11999999999999" type="line"/>
      <point x="26.319999999999993" y="0.0" type="line"/>
      <point x="485.21999999999997" y="0.0" type="line"/>
      <point x="485.21999999999997" y="76.11999999999999" type="line"/>
      <point x="464.9800000000001" y="76.11999999999999" type="line" smooth="yes"/>
      <point x="435.1199999999999" y="76.11999999999999"/>
      <point x="398.18000000000006" y="77.11999999999999"/>
      <point x="398.18000000000006" y="112.11999999999999" type="curve" smooth="yes"/>
    </contour>
    <contour>
      <point x="366" y="394" type="curve"/>
      <point x="366" y="319" type="line"/>
      <point x="450" y="315"/>
      <point x="534" y="310"/>
      <point x="618" y="306" type="curve"/>
      <point x="618" y="407" type="line"/>
      <point x="534" y="402"/>
      <point x="450" y="398"/>
    </contour>
  </outline>
</glyph>
<glyph name="I" format="2">
  <advance width="488"/>
  <unicode hex="0049"/>
  <anchor x="223.64000000000001" y="741.0" name="top"/>
  <anchor x="293.44000000000005" y="0.0" name="right"/>
  <anchor x="223.64000000000001" y="0.0" name="bottom"/>
  <outline>
    <contour>
      <point x="89.03999999999999" y="112.11999999999999" type="line" smooth="yes"/>
      <point x="89.03999999999999" y="83.11999999999999"/>
      <point x="67.8" y="76.11999999999999"/>
      <point x="37.94" y="76.11999999999999" type="curve" smooth="yes"/>
      <point x="26.319999999999993" y="76.11999999999999" type="line"/>
      <point x="26.319999999999993" y="0.0" type="line"/>
      <point x="461.44000000000005" y="0.0" type="line"/>
      <point x="461.44000000000005" y="76.11999999999999" type="line"/>
      <point x="449.2800000000001" y="76.11999999999999" type="line" smooth="yes"/>
      <point x="419.96" y="76.11999999999999"/>
      <point x="398.18000000000006" y="83.11999999999999"/>
      <point x="398.18000000000006" y="112.11999999999999" type="curve" smooth="yes"/>
      <point x="398.18000000000006" y="597.88" type="line" smooth="yes"/>
      <point x="398.18000000000006" y="626.88"/>
      <point x="419.96" y="633.88"/>
      <point x="449.2800000000001" y="633.88" type="curve" smooth="yes"/>
      <point x="461.44000000000005" y="633.88" type="line"/>
      <point x="461.44000000000005" y="710.0" type="line"/>
      <point x="26.319999999999993" y="710.0" type="line"/>
      <point x="26.319999999999993" y="633.88" type="line"/>
      <point x="37.94" y="633.88" type="line" smooth="yes"/>
      <point x="67.8" y="633.88"/>
      <point x="89.03999999999999" y="626.88"/>
      <point x="89.03999999999999" y="597.88" type="curve" smooth="yes"/>
    </contour>
  </outline>
</glyph>
<glyph name="Q" format="2">
  <advance width="967.3600000000001"/>
  <unicode hex="0051"/>
  <outline>
    <contour>
      <point x="419.9600000000001" y="2.999999999999999" type="line"/>
      <point x="415.8800112820401" y="-161.95185511783106"/>
      <point x="513.54" y="-228.096"/>
      <point x="715.9399999999998" y="-228.096" type="curve" smooth="yes"/>
      <point x="787.2800000000001" y="-228.096"/>
      <point x="857.0800000000002" y="-213.77599999999998"/>
      <point x="896.5600000000002" y="-194.62400000000002" type="curve"/>
      <point x="896.5600000000002" y="-32.24000000000001" type="line"/>
      <point x="863.1600000000001" y="-45.57599999999999"/>
      <point x="781.2" y="-71.888"/>
      <point x="688.6200000000001" y="-71.888" type="curve" smooth="yes"/>
      <point x="601.58" y="-71.888"/>
      <point x="550.48045050852" y="-54.19847751658594"/>
      <point x="555.02" y="10.0" type="curve"/>
    </contour>
    <contour>
      <point x="483.68000000000006" y="-10.0" type="curve" smooth="yes"/>
      <point x="750.3399999999999" y="-10.0"/>
      <point x="934.5" y="134.008"/>
      <point x="934.5" y="355.0" type="curve" smooth="yes"/>
      <point x="934.5" y="575.3280000000001"/>
      <point x="750.3399999999999" y="720.0"/>
      <point x="483.68000000000006" y="720.0" type="curve" smooth="yes"/>
      <point x="217.56" y="720.0"/>
      <point x="33.4" y="575.3280000000001"/>
      <point x="33.4" y="355.0" type="curve" smooth="yes"/>
      <point x="33.4" y="134.008"/>
      <point x="217.56" y="-10.0"/>
    </contour>
    <contour>
      <point x="483.68000000000006" y="83.28" type="curve" smooth="yes"/>
      <point x="403.26000000000005" y="83.28"/>
      <point x="354.1600000000001" y="177.15200000000002"/>
      <point x="354.1600000000001" y="355.0" type="curve" smooth="yes"/>
      <point x="354.1600000000001" y="532.848"/>
      <point x="403.26000000000005" y="626.72"/>
      <point x="483.68000000000006" y="626.72" type="curve" smooth="yes"/>
      <point x="564.64" y="626.72"/>
      <point x="613.7399999999999" y="532.848"/>
      <point x="613.7399999999999" y="355.0" type="curve" smooth="yes"/>
      <point x="613.7399999999999" y="177.15200000000002"/>
      <point x="564.64" y="83.28"/>
    </contour>
  </outline>
</glyph>
<glyph name="S" format="2">
  <advance width="751"/>
  <unicode hex="0053"/>
  <anchor x="413.88000000000005" y="741.0" name="top"/>
  <anchor x="413.88000000000005" y="0.0" name="bottom"/>
  <outline>
    <contour>
      <point x="383.02" y="81.61599999999999" type="curve" smooth="yes"/>
      <point x="295.98" y="81.61599999999999"/>
      <point x="200.85999999999999" y="131.648"/>
      <point x="159.38" y="224.328" type="curve"/>
      <point x="23.78" y="224.328" type="line"/>
      <point x="23.78" y="0.0" type="line"/>
      <point x="133.06" y="0.0" type="line"/>
      <point x="160.38" y="169.16799999999998" type="line"/>
      <point x="158.38" y="173.336"/>
      <point x="117.89999999999999" y="154.504"/>
      <point x="85.5" y="180.656" type="curve"/>
      <point x="145.22" y="36.84"/>
      <point x="268.65999999999997" y="-10.0"/>
      <point x="408.80000000000007" y="-10.0" type="curve" smooth="yes"/>
      <point x="626.3600000000001" y="-10.0"/>
      <point x="739.7199999999999" y="88.792"/>
      <point x="739.7199999999999" y="236.43200000000002" type="curve" smooth="yes"/>
      <point x="739.7199999999999" y="383.76"/>
      <point x="618.28" y="435.072"/>
      <point x="476.59999999999997" y="466.736" type="curve" smooth="yes"/>
      <point x="369.86" y="491.24"/>
      <point x="291.44" y="505.088"/>
      <point x="291.44" y="562.6400000000001" type="curve" smooth="yes"/>
      <point x="291.44" y="603.688"/>
      <point x="322.29999999999995" y="629.384"/>
      <point x="384.02" y="629.384" type="curve" smooth="yes"/>
      <point x="461.44" y="629.384"/>
      <point x="525.7" y="591.696"/>
      <point x="550.48" y="520.6719999999999" type="curve"/>
      <point x="673.9200000000002" y="520.6719999999999" type="line"/>
      <point x="673.9200000000002" y="710.0" type="line"/>
      <point x="570.7199999999999" y="710.0" type="line"/>
      <point x="542.4000000000001" y="565.832" type="line"/>
      <point x="568.1800000000001" y="558.336"/>
      <point x="590.96" y="568.336"/>
      <point x="617.28" y="555.192" type="curve"/>
      <point x="569.7199999999999" y="678.3520000000001"/>
      <point x="492.29999999999995" y="720.0"/>
      <point x="347.08000000000004" y="720.0" type="curve" smooth="yes"/>
      <point x="183.15999999999997" y="720.0"/>
      <point x="40.48" y="641.512"/>
      <point x="40.48" y="500.56" type="curve" smooth="yes"/>
      <point x="40.48" y="352.904"/>
      <point x="156.84" y="297.432"/>
      <point x="277.28000000000003" y="266.768" type="curve" smooth="yes"/>
      <point x="408.8" y="233.94400000000002"/>
      <point x="485.21999999999997" y="217.26400000000004"/>
      <point x="485.21999999999997" y="158.024" type="curve" smooth="yes"/>
      <point x="485.21999999999997" y="107.136"/>
      <point x="450.81999999999994" y="81.61599999999999"/>
    </contour>
  </outline>
</glyph>
<glyph name="sterling" format="2">
  <advance width="665.8399999999999"/>
  <unicode hex="00A3"/>
  <outline>
    <contour>
      <point x="23.78" y="397.44800000000004" type="line"/>
      <point x="23.78" y="295.192" type="line"/>
      <point x="527.6999999999999" y="295.192" type="line"/>
      <point x="527.6999999999999" y="397.44800000000004" type="line"/>
    </contour>
    <contour>
      <point x="23.78000000000001" y="-10.503999999999998" type="line"/>
      <point x="254.5" y="17.512"/>
      <point x="373.40000000000003" y="140.128"/>
      <point x="373.40000000000003" y="260.296" type="curve" smooth="yes"/>
      <point x="373.40000000000003" y="381.784"/>
      <point x="325.84000000000003" y="459.088"/>
      <point x="325.84000000000003" y="541.136" type="curve" smooth="yes"/>
      <point x="325.84000000000003" y="595.856"/>
      <point x="345.08000000000004" y="626.384"/>
      <point x="385.02" y="626.384" type="curve" smooth="yes"/>
      <point x="407.8" y="626.384"/>
      <point x="424.5" y="614.528"/>
      <point x="438.6600000000001" y="593.1840000000001" type="curve"/>
      <point x="474.6" y="599.872"/>
      <point x="465.98" y="629.696"/>
      <point x="413.88000000000005" y="630.032" type="curve"/>
      <point x="413.88000000000005" y="522.3679999999999" type="line"/>
      <point x="614.74" y="522.3679999999999" type="line"/>
      <point x="614.74" y="662.0" type="line"/>
      <point x="586.42" y="682.008"/>
      <point x="513.54" y="719.664"/>
      <point x="367.31999999999994" y="719.664" type="curve" smooth="yes"/>
      <point x="159.38" y="719.664"/>
      <point x="54.639999999999986" y="633.176"/>
      <point x="54.639999999999986" y="526.984" type="curve" smooth="yes"/>
      <point x="54.639999999999986" y="401.008"/>
      <point x="163.92000000000002" y="339.496"/>
      <point x="163.92000000000002" y="231.98399999999998" type="curve" smooth="yes"/>
      <point x="163.92000000000002" y="167.62399999999997"/>
      <point x="116.36000000000001" y="127.112"/>
      <point x="23.78000000000001" y="105.256" type="curve"/>
    </contour>
    <contour>
      <point x="450.81999999999994" y="-10.0" type="curve" smooth="yes"/>
      <point x="568.1800000000001" y="-10.0"/>
      <point x="632.4399999999999" y="92.64000000000001"/>
      <point x="665.8399999999999" y="198.96000000000004" type="curve"/>
      <point x="545.9399999999999" y="230.272" type="line"/>
      <point x="522.1600000000001" y="167.416"/>
      <point x="500.38" y="141.56799999999998"/>
      <point x="445.7399999999999" y="141.56799999999998" type="curve" smooth="yes"/>
      <point x="383.02" y="141.56799999999998"/>
      <point x="348.62" y="167.90400000000002"/>
      <point x="280.82" y="225.248" type="curve"/>
      <point x="236.8" y="215.416"/>
      <point x="187.70000000000002" y="155.64"/>
      <point x="190.24000000000004" y="131.816" type="curve"/>
      <point x="303.05999999999995" y="41.656000000000006"/>
      <point x="360.24" y="-10.0"/>
    </contour>
  </outline>
</glyph>
<glyph name="paragraph" format="2">
  <advance width="781.2"/>
  <unicode hex="00B6"/>
  <outline>
    <contour>
      <point x="754.8800000000001" y="710.0" type="line"/>
      <point x="754.8800000000001" y="633.88" type="line"/>
      <point x="743.2600000000002" y="633.88" type="line" smooth="yes"/>
      <point x="713.4" y="633.88"/>
      <point x="692.1600000000001" y="626.88"/>
      <point x="692.1600000000001" y="597.88" type="curve" smooth="yes"/>
      <point x="692.1600000000001" y="0.0" type="line"/>
      <point x="531.24" y="0.0" type="line"/>
      <point x="531.24" y="710.0" type="line"/>
    </contour>
    <contour>
      <point x="471.06000000000006" y="0.0" type="line"/>
      <point x="310.14" y="0.0" type="line"/>
      <point x="310.14" y="295.08" type="line"/>
      <point x="304.6" y="295.08" type="line" smooth="yes"/>
      <point x="126.97999999999999" y="295.08"/>
      <point x="17.700000000000017" y="383.064"/>
      <point x="17.700000000000017" y="508.03999999999996" type="curve" smooth="yes"/>
      <point x="17.700000000000017" y="631.016"/>
      <point x="122.44" y="710.0"/>
      <point x="298.52" y="710.0" type="curve" smooth="yes"/>
      <point x="471.06000000000006" y="710.0" type="line"/>
    </contour>
    <contour>
      <point x="570.7199999999999" y="710.0" type="line"/>
      <point x="570.7199999999999" y="633.88" type="line"/>
      <point x="374.4" y="633.88" type="line"/>
      <point x="374.4" y="710.0" type="line"/>
    </contour>
  </outline>
</glyph>
<glyph name="thorn" format="2">
  <advance width="822.6800000000001"/>
  <unicode hex="00FE"/>
  <outline>
    <contour>
      <point x="19.24" y="-223.0" type="line"/>
      <point x="417.41999999999996" y="-223.0" type="line"/>
      <point x="417.41999999999996" y="-152.208" type="line"/>
      <point x="414.88000000000005" y="-152.208" type="line" smooth="yes"/>
      <point x="388.56000000000006" y="-152.208"/>
      <point x="350.62" y="-150.04"/>
      <point x="350.62" y="-143.872" type="curve"/>
      <point x="350.62" y="735.0" type="line"/>
      <point x="19.24" y="735.0" type="line"/>
      <point x="19.24" y="660.712" type="line"/>
      <point x="27.32" y="658.712" type="line" smooth="yes"/>
      <point x="51.1" y="652.0400000000001"/>
      <point x="59.71999999999999" y="647.704"/>
      <point x="59.71999999999999" y="629.52" type="curve" smooth="yes"/>
      <point x="59.71999999999999" y="-124.52799999999999" type="line" smooth="yes"/>
      <point x="59.71999999999999" y="-146.04"/>
      <point x="41.47999999999999" y="-152.208"/>
      <point x="20.24000000000001" y="-152.208" type="curve"/>
      <point x="19.24" y="-152.208" type="line"/>
    </contour>
    <contour>
      <point x="493.29999999999995" y="262.82399999999996" type="curve" smooth="yes"/>
      <point x="493.29999999999995" y="160.12"/>
      <point x="473.0600000000001" y="95.256"/>
      <point x="417.41999999999996" y="95.256" type="curve" smooth="yes"/>
      <point x="363.78000000000003" y="95.256"/>
      <point x="345.08000000000004" y="143.42399999999998"/>
      <point x="319.7600000000001" y="208.31199999999998" type="curve"/>
      <point x="255.5" y="156.36" type="line"/>
      <point x="303.05999999999995" y="40.84"/>
      <point x="375.94000000000005" y="-10.0"/>
      <point x="512.54" y="-10.0" type="curve" smooth="yes"/>
      <point x="675.46" y="-10.0"/>
      <point x="790.8200000000002" y="103.16"/>
      <point x="790.8200000000002" y="262.82399999999996" type="curve" smooth="yes"/>
      <point x="790.8200000000002" y="418.992"/>
      <point x="686.08" y="522.992"/>
      <point x="522.1600000000001" y="522.992" type="curve" smooth="yes"/>
      <point x="403.26" y="522.992"/>
      <point x="348.62" y="464.656"/>
      <point x="282.82" y="349.96799999999996" type="curve"/>
      <point x="320.76" y="293.688" type="line"/>
      <point x="355.70000000000005" y="368.728"/>
      <point x="379.48" y="417.736"/>
      <point x="427.03999999999996" y="417.736" type="curve" smooth="yes"/>
      <point x="474.6" y="417.736"/>
      <point x="493.29999999999995" y="363.69599999999997"/>
    </contour>
  </outline>
</glyph>
<glyph name="hbar" format="2">
  <advance width="812.0600000000002"/>
  <unicode hex="0127"/>
  <outline>
    <contour>
      <point x="803.98" y="0.0" type="line"/>
      <point x="803.98" y="70.792" type="line"/>
      <point x="801.4399999999999" y="70.792" type="line" smooth="yes"/>
      <point x="780.2" y="70.792"/>
      <point x="763.5" y="76.96000000000001"/>
      <point x="763.5" y="98.47200000000001" type="curve" smooth="yes"/>
      <point x="763.5" y="345.352" type="line" smooth="yes"/>
      <point x="763.5" y="461.344"/>
      <point x="680.0" y="522.992"/>
      <point x="553.0200000000002" y="522.992" type="curve" smooth="yes"/>
      <point x="447.28000000000003" y="522.992"/>
      <point x="368.32" y="474.312"/>
      <point x="332.91999999999996" y="402.24" type="curve"/>
      <point x="346.08" y="324.82399999999996" type="line"/>
      <point x="366.31999999999994" y="376.384"/>
      <point x="394.64000000000004" y="408.408"/>
      <point x="430.58000000000004" y="408.408" type="curve" smooth="yes"/>
      <point x="462.44" y="408.408"/>
      <point x="472.05999999999995" y="390.216"/>
      <point x="472.05999999999995" y="351.82399999999996" type="curve" smooth="yes"/>
      <point x="472.05999999999995" y="79.12799999999999" type="line" smooth="yes"/>
      <point x="472.05999999999995" y="72.96000000000002"/>
      <point x="451.82" y="70.792"/>
      <point x="437.6600000000001" y="70.792" type="curve" smooth="yes"/>
      <point x="436.12" y="70.792" type="line"/>
      <point x="436.12" y="0.0" type="line"/>
    </contour>
    <contour>
      <point x="59.72" y="735.0" type="line"/>
      <point x="59.72" y="98.47200000000001" type="line" smooth="yes"/>
      <point x="59.72" y="76.96000000000001"/>
      <point x="41.47999999999999" y="70.792"/>
      <point x="20.240000000000002" y="70.792" type="curve" smooth="yes"/>
      <point x="19.240000000000002" y="70.792" type="line"/>
      <point x="19.240000000000002" y="0.0" type="line"/>
      <point x="386.56000000000006" y="0.0" type="line"/>
      <point x="386.56000000000006" y="70.792" type="line"/>
      <point x="383.02" y="70.792" type="line" smooth="yes"/>
      <point x="370.86" y="70.792"/>
      <point x="350.61999999999995" y="72.96000000000002"/>
      <point x="350.61999999999995" y="79.12799999999999" type="curve"/>
      <point x="350.61999999999995" y="735.0" type="line"/>
    </contour>
    <contour>
      <point x="524.1600000000001" y="652.968" type="line"/>
      <point x="7.08" y="652.968" type="line"/>
      <point x="7.08" y="565.192" type="line"/>
      <point x="524.1600000000001" y="565.192" type="line"/>
    </contour>
  </outline>
</glyph>
<glyph name="dotlessi" format="2">
  <advance width="405.2600000000001"/>
  <unicode hex="0131"/>
  <anchor x="204.4" y="545.808" name="top"/>
  <outline>
    <contour>
      <point x="350.61999999999995" y="512.992" type="line"/>
      <point x="19.240000000000002" y="512.992" type="line"/>
      <point x="19.240000000000002" y="438.704" type="line"/>
      <point x="27.32" y="436.704" type="line" smooth="yes"/>
      <point x="51.099999999999994" y="430.2"/>
      <point x="59.72" y="425.69599999999997"/>
      <point x="59.72" y="407.512" type="curve" smooth="yes"/>
      <point x="59.72" y="98.47200000000001" type="line" smooth="yes"/>
      <point x="59.72" y="76.96000000000001"/>
      <point x="41.47999999999999" y="70.792"/>
      <point x="20.240000000000002" y="70.792" type="curve" smooth="yes"/>
      <point x="19.240000000000002" y="70.792" type="line"/>
      <point x="19.240000000000002" y="0.0" type="line"/>
      <point x="391.09999999999997" y="0.0" type="line"/>
      <point x="391.09999999999997" y="70.792" type="line"/>
      <point x="390.1" y="70.792" type="line" smooth="yes"/>
      <point x="368.31999999999994" y="70.792"/>
      <point x="350.61999999999995" y="76.96000000000001"/>
      <point x="350.61999999999995" y="98.47200000000001" type="curve" smooth="yes"/>
    </contour>
  </outline>
</glyph>
<glyph name="Lslash" format="2">
  <advance width="774.1199999999999"/>
  <unicode hex="0141"/>
  <outline>
    <contour>
      <point x="8.079999999999998" y="177.184" type="line"/>
      <point x="8.079999999999998" y="274.64" type="line"/>
      <point x="576.8000000000001" y="530.992" type="line"/>
      <point x="576.8000000000001" y="433.53599999999994" type="line"/>
    </contour>
    <component base="L" xOffset="46.44000000000001"/>
  </outline>
</glyph>
<glyph name="oe" format="2">
  <advance width="1171.3"/>
  <unicode hex="0153"/>
  <outline>
    <contour>
      <point x="856.08" y="-10.0" type="curve" smooth="yes"/>
      <point x="995.2200000000001" y="-10.0"/>
      <point x="1083.26" y="44.495999999999995"/>
      <point x="1130.8200000000002" y="123.64" type="curve"/>
      <point x="1039.2399999999998" y="171.464" type="line"/>
      <point x="1011.9200000000001" y="128.296"/>
      <point x="967.9" y="82.77599999999998"/>
      <point x="893.02" y="82.77599999999998" type="curve" smooth="yes"/>
      <point x="788.2800000000001" y="82.77599999999998"/>
      <point x="761.9600000000002" y="143.464"/>
      <point x="761.9600000000002" y="254.992" type="curve" smooth="yes"/>
      <point x="761.9600000000002" y="386.82399999999996"/>
      <point x="787.2800000000001" y="434.544"/>
      <point x="826.2200000000003" y="434.544" type="curve" smooth="yes"/>
      <point x="865.7" y="434.544"/>
      <point x="880.8600000000001" y="401.4960415205985"/>
      <point x="883.4" y="268.328" type="curve"/>
      <point x="910.7200000000001" y="303.64" type="line"/>
      <point x="607.6600000000001" y="303.64" type="line"/>
      <point x="608.6600000000001" y="221.84799999999998" type="line"/>
      <point x="1147.52" y="221.84799999999998" type="line"/>
      <point x="1145.9799999999998" y="423.1680041375107"/>
      <point x="1032.16" y="523.16"/>
      <point x="834.8399999999999" y="523.16" type="curve" smooth="yes"/>
      <point x="652.6800000000001" y="523.16"/>
      <point x="540.8600000000001" y="398.168"/>
      <point x="540.8600000000001" y="255.328" type="curve" smooth="yes"/>
      <point x="540.8600000000001" y="109.48800000000001"/>
      <point x="648.1399999999999" y="-10.0"/>
    </contour>
    <contour>
      <point x="379.48" y="-10.0" type="curve"/>
      <point x="588.4200000000001" y="-10.0"/>
      <point x="695.7" y="116.15200000000002"/>
      <point x="695.7" y="256.496" type="curve" smooth="yes"/>
      <point x="695.7" y="396.504"/>
      <point x="588.4200000000001" y="522.992"/>
      <point x="379.48" y="522.992" type="curve" smooth="yes"/>
      <point x="165.45999999999998" y="522.992"/>
      <point x="27.32" y="415.16"/>
      <point x="27.32" y="256.496" type="curve" smooth="yes"/>
      <point x="27.32" y="97.832"/>
      <point x="165.45999999999998" y="-10.0"/>
    </contour>
    <contour>
      <point x="397.18000000000006" y="78.61600000000001" type="curve"/>
      <point x="347.08000000000004" y="78.61600000000001"/>
      <point x="324.84000000000003" y="134.824"/>
      <point x="324.84000000000003" y="256.496" type="curve" smooth="yes"/>
      <point x="324.84000000000003" y="378.0"/>
      <point x="347.08000000000004" y="434.37600000000003"/>
      <point x="397.18000000000006" y="434.37600000000003" type="curve" smooth="yes"/>
      <point x="447.28000000000003" y="434.37600000000003"/>
      <point x="469.52" y="378.0"/>
      <point x="469.52" y="256.496" type="curve" smooth="yes"/>
      <point x="469.52" y="134.656"/>
      <point x="447.28000000000003" y="78.61600000000001"/>
    </contour>
  </outline>
</glyph>
<glyph name="guilsinglleft" format="2">
  <advance width="406.8"/>
  <unicode hex="2039"/>
  <outline>
    <contour>
      <point x="244.87999999999997" y="217.16000000000003" type="line"/>
      <point x="370.86000000000007" y="463.32000000000005" type="line"/>
      <point x="242.34000000000003" y="463.32000000000005" type="line"/>
      <point x="35.40000000000002" y="289.16" type="line"/>
      <point x="35.40000000000002" y="240.83999999999997" type="line"/>
      <point x="242.34000000000003" y="66.68" type="line"/>
      <point x="370.86000000000007" y="66.68" type="line"/>
      <point x="245.88000000000002" y="308.84" type="line"/>
    </contour>
  </outline>
</glyph>
<glyph name="franc" format="2">
  <advance width="665.8399999999999"/>
  <unicode hex="20A3"/>
  <outline>
    <contour>
      <point x="372.4" y="418.64" type="line"/>
      <point x="372.4" y="345.84" type="line"/>
      <point x="589.96" y="332.848" type="line"/>
      <point x="589.96" y="431.632" type="line"/>
    </contour>
    <contour>
      <point x="404.26" y="623.88" type="line"/>
      <point x="431.58000000000004" y="623.88" type="line" smooth="yes"/>
      <point x="489.7600000000001" y="623.88"/>
      <point x="531.24" y="616.88"/>
      <point x="535.32" y="580.88" type="curve" smooth="yes"/>
      <point x="542.4" y="513.3520000000001" type="line"/>
      <point x="649.1399999999999" y="513.3520000000001" type="line"/>
      <point x="649.1399999999999" y="710.0" type="line"/>
      <point x="40.480000000000004" y="710.0" type="line"/>
      <point x="40.480000000000004" y="633.88" type="line"/>
      <point x="55.63999999999999" y="633.88" type="line" smooth="yes"/>
      <point x="85.5" y="633.88"/>
      <point x="107.28000000000003" y="626.88"/>
      <point x="107.28000000000003" y="597.88" type="curve" smooth="yes"/>
      <point x="107.28000000000003" y="112.11999999999999" type="line" smooth="yes"/>
      <point x="107.28000000000003" y="83.11999999999999"/>
      <point x="85.5" y="76.11999999999999"/>
      <point x="55.63999999999999" y="76.11999999999999" type="curve" smooth="yes"/>
      <point x="40.480000000000004" y="76.11999999999999" type="line"/>
      <point x="40.480000000000004" y="0.0" type="line"/>
      <point x="494.8400000000001" y="0.0" type="line"/>
      <point x="494.8400000000001" y="76.11999999999999" type="line"/>
      <point x="480.14" y="76.11999999999999" type="line" smooth="yes"/>
      <point x="438.65999999999997" y="76.11999999999999"/>
      <point x="404.26" y="77.11999999999999"/>
      <point x="404.26" y="112.11999999999999" type="curve" smooth="yes"/>
    </contour>
    <contour>
      <point x="40.480000000000004" y="252.464" type="line"/>
      <point x="40.480000000000004" y="173.83999999999997" type="line"/>
      <point x="522.1600000000001" y="173.83999999999997" type="line"/>
      <point x="522.1600000000001" y="252.464" type="line"/>
    </contour>
  </outline>
</glyph>
<glyph name="won" format="2">
  <advance width="666.8399999999999"/>
  <unicode hex="20A9"/>
  <outline>
    <contour>
      <point x="13.160000000000007" y="710.0" type="line"/>
      <point x="13.160000000000007" y="633.88" type="line"/>
      <point x="21.24" y="633.88" type="line" smooth="yes"/>
      <point x="35.400000000000006" y="633.88"/>
      <point x="47.56" y="628.384"/>
      <point x="48.56" y="604.3679999999999" type="curve" smooth="yes"/>
      <point x="80.96000000000001" y="0.0" type="line"/>
      <point x="297.52" y="0.0" type="line"/>
      <point x="343.54" y="683.0" type="line"/>
      <point x="329.38000000000005" y="689.0" type="line"/>
      <point x="360.24" y="0.0" type="line"/>
      <point x="575.2600000000002" y="0.0" type="line"/>
      <point x="612.1999999999999" y="590.88" type="line" smooth="yes"/>
      <point x="614.74" y="624.048"/>
      <point x="627.9" y="633.88"/>
      <point x="646.5999999999999" y="633.88" type="curve" smooth="yes"/>
      <point x="653.6800000000001" y="633.88" type="line"/>
      <point x="653.6800000000001" y="710.0" type="line"/>
      <point x="496.84000000000003" y="710.0" type="line"/>
      <point x="496.84000000000003" y="633.88" type="line"/>
      <point x="501.91999999999996" y="633.88" type="line" smooth="yes"/>
      <point x="512.54" y="633.88"/>
      <point x="526.7" y="630.2080000000001"/>
      <point x="526.7" y="622.536" type="curve"/>
      <point x="491.29999999999995" y="20.0" type="line"/>
      <point x="501.91999999999996" y="25.0" type="line"/>
      <point x="462.44000000000005" y="710.0" type="line"/>
      <point x="261.58" y="710.0" type="line"/>
      <point x="215.02" y="12.0" type="line"/>
      <point x="225.64000000000004" y="15.0" type="line"/>
      <point x="196.32000000000002" y="623.88" type="line"/>
      <point x="196.32000000000002" y="630.88"/>
      <point x="207.94000000000003" y="633.88"/>
      <point x="217.55999999999997" y="633.88" type="curve" smooth="yes"/>
      <point x="225.64000000000004" y="633.88" type="line"/>
      <point x="225.64000000000004" y="710.0" type="line"/>
    </contour>
    <contour>
      <point x="10.619999999999997" y="472.80800000000005" type="line"/>
      <point x="10.619999999999997" y="391.688" type="line"/>
      <point x="173.54000000000002" y="391.688" type="line"/>
      <point x="196.32" y="414.984" type="line"/>
      <point x="271.2" y="414.984" type="line"/>
      <point x="278.2800000000001" y="472.80800000000005" type="line"/>
    </contour>
    <contour>
      <point x="421.9600000000001" y="414.984" type="line"/>
      <point x="537.3199999999999" y="414.984" type="line"/>
      <point x="567.1800000000001" y="391.688" type="line"/>
      <point x="656.22" y="391.688" type="line"/>
      <point x="656.22" y="472.80800000000005" type="line"/>
      <point x="414.88" y="472.80800000000005" type="line"/>
    </contour>
    <contour>
      <point x="269.65999999999997" y="246.15200000000002" type="line"/>
      <point x="415.88000000000005" y="246.15200000000002" type="line"/>
      <point x="421.96" y="303.976" type="line"/>
      <point x="288.9" y="303.976" type="line"/>
    </contour>
    <contour>
      <point x="154.84000000000003" y="317.288" type="line"/>
      <point x="10.619999999999997" y="317.288" type="line"/>
      <point x="10.619999999999997" y="236.16799999999998" type="line"/>
      <point x="160.38" y="236.16799999999998" type="line"/>
    </contour>
    <contour>
      <point x="544.4" y="236.16799999999998" type="line"/>
      <point x="656.22" y="236.16799999999998" type="line"/>
      <point x="656.22" y="317.288" type="line"/>
      <point x="567.1800000000001" y="317.288" type="line"/>
    </contour>
  </outline>
</glyph>
<glyph name="ruble" format="2">
  <advance width="665.8399999999999"/>
  <unicode hex="20BD"/>
  <outline>
    <contour>
      <point x="15.700000000000003" y="379.17600000000004" type="line"/>
      <point x="330.38000000000005" y="379.17600000000004" type="line" smooth="yes"/>
      <point x="379.4800000000001" y="379.17600000000004"/>
      <point x="410.34" y="421.69599999999997"/>
      <point x="410.34" y="508.024" type="curve" smooth="yes"/>
      <point x="410.34" y="589.024"/>
      <point x="379.48" y="623.048"/>
      <point x="336.4600000000001" y="623.048" type="curve" smooth="yes"/>
      <point x="326.84000000000003" y="623.048" type="line"/>
      <point x="326.84000000000003" y="86.11999999999999" type="line" smooth="yes"/>
      <point x="326.84000000000003" y="79.11999999999999"/>
      <point x="353.15999999999997" y="76.11999999999999"/>
      <point x="374.4" y="76.11999999999999" type="curve" smooth="yes"/>
      <point x="385.02" y="76.11999999999999" type="line"/>
      <point x="385.02" y="0.0" type="line"/>
      <point x="15.700000000000003" y="0.0" type="line"/>
      <point x="15.700000000000003" y="76.11999999999999" type="line"/>
      <point x="22.780000000000005" y="76.11999999999999" type="line" smooth="yes"/>
      <point x="45.02000000000001" y="76.11999999999999"/>
      <point x="61.72" y="83.11999999999999"/>
      <point x="61.72" y="112.11999999999999" type="curve" smooth="yes"/>
      <point x="61.72" y="597.88" type="line" smooth="yes"/>
      <point x="61.72" y="626.88"/>
      <point x="45.02000000000001" y="633.88"/>
      <point x="22.780000000000005" y="633.88" type="curve" smooth="yes"/>
      <point x="15.700000000000003" y="633.88" type="line"/>
      <point x="15.700000000000003" y="710.0" type="line"/>
      <point x="348.61999999999995" y="710.0" type="line" smooth="yes"/>
      <point x="554.02" y="710.0"/>
      <point x="665.8399999999999" y="639.4960000000001"/>
      <point x="665.8399999999999" y="512.352" type="curve" smooth="yes"/>
      <point x="665.8399999999999" y="380.384"/>
      <point x="545.94" y="301.384"/>
      <point x="347.08000000000004" y="301.384" type="curve" smooth="yes"/>
      <point x="15.700000000000003" y="301.384" type="line"/>
    </contour>
    <contour>
      <point x="458.9" y="164.68800000000002" type="line"/>
      <point x="15.700000000000003" y="164.68800000000002" type="line"/>
      <point x="15.700000000000003" y="242.48000000000002" type="line"/>
      <point x="458.9" y="242.48000000000002" type="line"/>
    </contour>
  </outline>
</glyph>
<glyph name="approxequal" format="2">
  <advance width="665.8399999999999"/>
  <unicode hex="2248"/>
  <outline>
    <contour>
      <point x="435.11999999999995" y="329.976" type="curve" smooth="yes"/>
      <point x="544.4000000000001" y="329.976"/>
      <point x="602.58" y="421.928"/>
      <point x="637.52" y="530.0400000000001" type="curve"/>
      <point x="507.46" y="557.192" type="line"/>
      <point x="496.84" y="522.688"/>
      <point x="481.68000000000006" y="480.352"/>
      <point x="434.1199999999999" y="480.352" type="curve" smooth="yes"/>
      <point x="375.94000000000005" y="480.352"/>
      <point x="332.91999999999996" y="555.512"/>
      <point x="229.71999999999997" y="555.512" type="curve" smooth="yes"/>
      <point x="108.28" y="555.512"/>
      <point x="58.18000000000001" y="472.552"/>
      <point x="29.859999999999996" y="359.60799999999995" type="curve"/>
      <point x="160.38" y="332.456" type="line"/>
      <point x="169.0" y="364.13599999999997"/>
      <point x="180.62" y="405.30400000000003"/>
      <point x="224.64000000000001" y="405.30400000000003" type="curve" smooth="yes"/>
      <point x="279.28000000000003" y="405.30400000000003"/>
      <point x="329.38000000000005" y="329.976"/>
    </contour>
    <contour>
      <point x="435.11999999999995" y="72.392" type="curve" smooth="yes"/>
      <point x="544.4000000000001" y="72.392"/>
      <point x="602.58" y="165.176"/>
      <point x="637.52" y="272.456" type="curve"/>
      <point x="507.46" y="299.776" type="line"/>
      <point x="496.84000000000003" y="265.10400000000004"/>
      <point x="481.68000000000006" y="222.76799999999997"/>
      <point x="434.1199999999999" y="222.76799999999997" type="curve" smooth="yes"/>
      <point x="375.94000000000005" y="222.76799999999997"/>
      <point x="332.91999999999996" y="297.928"/>
      <point x="229.71999999999997" y="297.928" type="curve" smooth="yes"/>
      <point x="108.28" y="297.928"/>
      <point x="58.18000000000001" y="214.968"/>
      <point x="29.859999999999996" y="102.856" type="curve"/>
      <point x="160.38" y="75.03999999999999" type="line"/>
      <point x="169.0" y="107.38399999999999"/>
      <point x="180.62" y="148.55199999999996"/>
      <point x="224.64000000000001" y="148.55199999999996" type="curve" smooth="yes"/>
      <point x="279.28000000000003" y="148.55199999999996"/>
      <point x="329.38000000000005" y="72.392"/>
    </contour>
  </outline>
</glyph>
<glyph name="uni25B4" format="2">
  <advance width="991.6800000000001"/>
  <unicode hex="25B4"/>
  <outline>
    <contour>
      <point x="23.780000000000005" y="0.0" type="line"/>
      <point x="967.8999999999999" y="0.0" type="line"/>
      <point x="495.84000000000003" y="715.0" type="line"/>
    </contour>
  </outline>
</glyph>
<glyph name="uni25B9" format="2">
  <advance width="681.54"/>
  <unicode hex="25B9"/>
  <outline>
    <contour>
      <point x="154.84000000000003" y="545.0" type="line"/>
      <point x="154.84000000000003" y="10.0" type="line"/>
      <point x="598.04" y="277.0" type="line"/>
    </contour>
    <contour>
      <point x="220.1" y="460.0" type="line"/>
      <point x="200.85999999999996" y="453.0" type="line"/>
      <point x="503.91999999999996" y="272.0" type="line"/>
      <point x="503.91999999999996" y="283.0" type="line"/>
      <point x="200.85999999999996" y="102.0" type="line"/>
      <point x="220.1" y="95.0" type="line"/>
    </contour>
  </outline>
</glyph>
<glyph name="f_f" format="2">
  <advance width="956.2799999999999"/>
  <unicode hex="FB00"/>
  <outline>
    <contour>
      <point x="-3.552713678800501e-15" y="512.992" type="line"/>
      <point x="-3.552713678800501e-15" y="432.69599999999997" type="line"/>
      <point x="492.3" y="432.69599999999997" type="line"/>
      <point x="492.3" y="512.992" type="line"/>
    </contour>
    <contour>
      <point x="420.96" y="512.992" type="line"/>
      <point x="420.96" y="432.69599999999997" type="line"/>
      <point x="941.58" y="432.69599999999997" type="line"/>
      <point x="941.58" y="512.992" type="line"/>
    </contour>
    <contour>
      <point x="374.4" y="79.12799999999999" type="curve"/>
      <point x="374.4" y="575.304" type="line" smooth="yes"/>
      <point x="374.4" y="633.2080000000001"/>
      <point x="394.64" y="649.552"/>
      <point x="429.04" y="649.552" type="curve" smooth="yes"/>
      <point x="447.28" y="649.552"/>
      <point x="468.52" y="643.048"/>
      <point x="471.0600000000001" y="640.872" type="curve"/>
      <point x="471.0600000000001" y="724.6719999999999" type="line"/>
      <point x="455.3600000000001" y="730.6719999999999"/>
      <point x="412.34000000000003" y="737.168"/>
      <point x="361.24" y="737.168" type="curve" smooth="yes"/>
      <point x="211.48" y="737.168"/>
      <point x="84.49999999999999" y="685.1840000000001"/>
      <point x="84.49999999999999" y="532.872" type="curve" smooth="yes"/>
      <point x="84.49999999999999" y="101.8" type="line" smooth="yes"/>
      <point x="84.49999999999999" y="80.28800000000001"/>
      <point x="66.80000000000001" y="70.792"/>
      <point x="33.400000000000006" y="70.792" type="curve" smooth="yes"/>
      <point x="19.24" y="70.792" type="line"/>
      <point x="19.24" y="0.0" type="line"/>
      <point x="418.41999999999996" y="0.0" type="line"/>
      <point x="418.41999999999996" y="70.792" type="line"/>
      <point x="414.88000000000005" y="70.792" type="line" smooth="yes"/>
      <point x="388.56000000000006" y="70.792"/>
      <point x="374.4" y="72.96000000000002"/>
    </contour>
    <contour>
      <point x="505.4600000000001" y="79.12799999999999" type="line"/>
      <point x="505.4600000000001" y="72.96000000000002"/>
      <point x="485.21999999999997" y="70.792"/>
      <point x="473.06000000000006" y="70.792" type="curve" smooth="yes"/>
      <point x="468.52" y="70.792" type="line"/>
      <point x="468.52" y="0.0" type="line"/>
      <point x="876.3199999999999" y="0.0" type="line"/>
      <point x="876.3199999999999" y="70.792" type="line"/>
      <point x="864.1600000000001" y="70.792" type="line" smooth="yes"/>
      <point x="833.3" y="70.792"/>
      <point x="795.3600000000001" y="72.96000000000002"/>
      <point x="795.3600000000001" y="79.12799999999999" type="curve" smooth="yes"/>
      <point x="795.3600000000001" y="556.024" type="line" smooth="yes"/>
      <point x="795.3600000000001" y="636.3919999999999"/>
      <point x="840.3800000000001" y="660.2239999999999"/>
      <point x="908.1800000000001" y="660.2239999999999" type="curve" smooth="yes"/>
      <point x="945.12" y="660.2239999999999"/>
      <point x="970.44" y="652.888"/>
      <point x="982.0600000000002" y="649.048" type="curve"/>
      <point x="982.0600000000002" y="735.344" type="line"/>
      <point x="963.3600000000001" y="741.344"/>
      <point x="907.1800000000001" y="747.84"/>
      <point x="839.3800000000001" y="747.84" type="curve" smooth="yes"/>
      <point x="653.6800000000001" y="747.84"/>
      <point x="505.4600000000001" y="695.856"/>
      <point x="505.4600000000001" y="543.544" type="curve"/>
    </contour>
  </outline>
</glyph>
<glyph name="acute.ucpl" format="2">
  <advance width="594.5"/>
  <anchor x="224.64000000000004" y="694.0" name="_top"/>
  <outline>
    <contour>
      <point x="191.24" y="869.9359999999999" type="curve" smooth="yes"/>
      <point x="187.7" y="779.8159999999999" type="line"/>
      <point x="187.7" y="754.16" type="line"/>
      <point x="281.81999999999994" y="754.16" type="line"/>
      <point x="328.3800000000001" y="806.16" type="line" smooth="yes"/>
      <point x="380.48" y="860.456"/>
      <point x="400.71999999999997" y="890.944"/>
      <point x="400.71999999999997" y="922.424" type="curve" smooth="yes"/>
      <point x="400.71999999999997" y="957.408"/>
      <point x="370.86" y="986.384"/>
      <point x="305.6" y="986.384" type="curve" smooth="yes"/>
      <point x="227.17999999999998" y="986.384"/>
      <point x="193.78000000000003" y="944.2479999999999"/>
    </contour>
  </outline>
</glyph>
<glyph name="blackleftpointingtriangle" format="2">
  <advance width="957.2800000000001"/>
  <outline>
    <contour>
      <point x="885.9399999999999" y="-39.0" type="line"/>
      <point x="885.9399999999999" y="755.0" type="line"/>
      <point x="71.34" y="358.0" type="line"/>
    </contour>
  </outline>
</glyph>
<glyph name="braceleft.uc" format="2">
  <advance width="454.36000000000007"/>
  <outline>
    <contour>
      <point x="374.4" y="258.86400000000003" type="curve"/>
      <point x="374.4" y="300.856"/>
      <point x="349.8766321463239" y="333.6595819673338"/>
      <point x="215.02" y="347.0" type="curve"/>
      <point x="215.02" y="352.0" type="line"/>
      <point x="349.8766321463239" y="365.3404180326662"/>
      <point x="374.4" y="398.976"/>
      <point x="374.4" y="440.13599999999997" type="curve" smooth="yes"/>
      <point x="374.4" y="495.288"/>
      <point x="298.52" y="556.848"/>
      <point x="298.52" y="610.528" type="curve" smooth="yes"/>
      <point x="298.52" y="656.88"/>
      <point x="351.6605948427939" y="674.7154982964367"/>
      <point x="427.0400000000001" y="680.2159999999999" type="curve"/>
      <point x="404.2600000000001" y="759.0" type="line"/>
      <point x="233.51882753219678" y="762.6903171317964"/>
      <point x="60.71999999999999" y="739.824"/>
      <point x="60.71999999999999" y="628.008" type="curve" smooth="yes"/>
      <point x="60.71999999999999" y="552.68"/>
      <point x="142.68" y="493.11199999999997"/>
      <point x="209.48000000000002" y="401.496" type="curve"/>
      <point x="215.02" y="432.976" type="line"/>
      <point x="35.4" y="386.64" type="line"/>
      <point x="35.4" y="312.36" type="line"/>
      <point x="215.02" y="266.024" type="line"/>
      <point x="209.48000000000002" y="297.504" type="line"/>
      <point x="143.67999999999998" y="207.55200000000002"/>
      <point x="60.71999999999999" y="148.816"/>
      <point x="60.71999999999999" y="75.15199999999999" type="curve" smooth="yes"/>
      <point x="60.71999999999999" y="-40.824"/>
      <point x="233.51882753219684" y="-63.690317131796476"/>
      <point x="404.2600000000001" y="-60.0" type="curve"/>
      <point x="427.0400000000001" y="18.784" type="line"/>
      <point x="351.66059484277986" y="24.28450170372249"/>
      <point x="298.52" y="43.784"/>
      <point x="298.52" y="92.632" type="curve" smooth="yes"/>
      <point x="298.52" y="144.648"/>
      <point x="374.4" y="205.37600000000003"/>
    </contour>
  </outline>
</glyph>
<glyph name="breve.uc" format="2">
  <advance width="595.04"/>
  <anchor x="297.52" y="694.0" name="_top"/>
  <outline>
    <contour>
      <point x="297.52" y="747.3520000000001" type="curve" smooth="yes"/>
      <point x="185.70000000000002" y="747.3520000000001"/>
      <point x="96.12000000000003" y="798.848"/>
      <point x="90.57999999999998" y="913.144" type="curve"/>
      <point x="218.56" y="913.144" type="line"/>
      <point x="223.64000000000001" y="874.456"/>
      <point x="251.95999999999998" y="862.28"/>
      <point x="301.05999999999995" y="862.28" type="curve" smooth="yes"/>
      <point x="349.61999999999995" y="862.28"/>
      <point x="376.94" y="874.456"/>
      <point x="381.48" y="913.144" type="curve"/>
      <point x="503.91999999999996" y="913.144" type="line"/>
      <point x="498.38000000000005" y="798.848"/>
      <point x="408.8" y="747.3520000000001"/>
    </contour>
  </outline>
</glyph>
<glyph name="circumflex_hook.uc" format="2">
  <advance width="606.6600000000001"/>
  <anchor x="291.44000000000005" y="694.0" name="_top"/>
  <outline>
    <contour>
      <point x="444.74" y="940.0" type="line"/>
      <point x="449.2800000000001" y="982.664"/>
      <point x="492.30000000000007" y="1023.9839999999999"/>
      <point x="608.6600000000001" y="1023.9839999999999" type="curve" smooth="yes"/>
      <point x="712.4" y="1023.9839999999999"/>
      <point x="767.04" y="994.488"/>
      <point x="767.04" y="946.16" type="curve" smooth="yes"/>
      <point x="767.04" y="890.664"/>
      <point x="708.8600000000001" y="868.664"/>
      <point x="620.8200000000002" y="863.0" type="curve"/>
      <point x="655.22" y="889.664" type="line"/>
      <point x="655.22" y="839.4960000000001" type="line"/>
      <point x="543.4" y="839.4960000000001" type="line"/>
      <point x="543.4" y="900.16" type="line"/>
      <point x="604.1199999999999" y="902.992"/>
      <point x="627.9000000000001" y="916.4960000000001"/>
      <point x="627.9000000000001" y="940.832" type="curve" smooth="yes"/>
      <point x="627.9000000000001" y="956.6719999999999"/>
      <point x="619.2800000000001" y="966.176"/>
      <point x="598.04" y="966.176" type="curve" smooth="yes"/>
      <point x="578.8000000000001" y="966.176"/>
      <point x="567.1800000000001" y="956.5039999999999"/>
      <point x="563.6399999999999" y="940.0" type="curve"/>
    </contour>
    <component base="circumflex.uc" xOffset="65.34000000000002"/>
  </outline>
</glyph>
<glyph name="colonsign" format="2">
  <advance width="665.8399999999999"/>
  <outline>
    <contour>
      <point x="413.88" y="716.6400000000001" type="curve" smooth="yes"/>
      <point x="196.32" y="716.6400000000001"/>
      <point x="23.779999999999998" y="600.264"/>
      <point x="23.779999999999998" y="355.0" type="curve" smooth="yes"/>
      <point x="23.779999999999998" y="110.064"/>
      <point x="176.08000000000004" y="-6.640000000000001"/>
      <point x="386.56000000000006" y="-6.640000000000001" type="curve" smooth="yes"/>
      <point x="539.86" y="-6.640000000000001"/>
      <point x="615.7399999999999" y="68.56"/>
      <point x="652.6800000000001" y="175.44" type="curve"/>
      <point x="551.4800000000001" y="216.752" type="line"/>
      <point x="529.2399999999999" y="148.336"/>
      <point x="494.84000000000003" y="84.304"/>
      <point x="403.2600000000001" y="84.304" type="curve" smooth="yes"/>
      <point x="295.98" y="84.304"/>
      <point x="251.95999999999998" y="122.91999999999999"/>
      <point x="251.95999999999998" y="355.0" type="curve" smooth="yes"/>
      <point x="251.95999999999998" y="550.8"/>
      <point x="296.77138888906006" y="625.032"/>
      <point x="425.5" y="625.032" type="curve" smooth="yes"/>
      <point x="495.84000000000003" y="625.032"/>
      <point x="568.1800000000001" y="616.8"/>
      <point x="599.0399999999998" y="610.2479999999999" type="curve"/>
      <point x="601.58" y="620.264"/>
      <point x="526.7" y="643.296"/>
      <point x="489.76000000000005" y="629.8159999999999" type="curve"/>
      <point x="489.76000000000005" y="516.808" type="line"/>
      <point x="657.76" y="516.808" type="line"/>
      <point x="657.76" y="665.9359999999999" type="line"/>
      <point x="639.52" y="680.952"/>
      <point x="545.9399999999999" y="716.6400000000001"/>
    </contour>
    <contour>
      <point x="360.24" y="790.0" type="line"/>
      <point x="229.72" y="-120.0" type="line"/>
      <point x="294.98" y="-120.0" type="line"/>
      <point x="425.5" y="790.0" type="line"/>
    </contour>
    <contour>
      <point x="495.84000000000003" y="790.0" type="line"/>
      <point x="364.78" y="-120.0" type="line"/>
      <point x="430.58000000000004" y="-120.0" type="line"/>
      <point x="561.1" y="790.0" type="line"/>
    </contour>
  </outline>
</glyph>
<glyph name="currency.proportional" format="2">
  <advance width="694.1600000000001"/>
  <outline>
    <contour>
      <point x="428.04" y="373.0" type="curve" smooth="yes"/>
      <point x="428.04" y="322.784"/>
      <point x="397.18000000000006" y="289.92"/>
      <point x="347.08000000000004" y="289.92" type="curve" smooth="yes"/>
      <point x="295.98" y="289.92"/>
      <point x="266.12" y="322.952"/>
      <point x="266.12" y="373.0" type="curve" smooth="yes"/>
      <point x="266.12" y="422.384"/>
      <point x="295.98" y="456.24800000000005"/>
      <point x="347.08000000000004" y="456.24800000000005" type="curve" smooth="yes"/>
      <point x="397.18000000000006" y="456.24800000000005"/>
      <point x="428.04" y="422.384"/>
    </contour>
    <contour>
      <point x="81.96" y="373.0" type="curve" smooth="yes"/>
      <point x="81.96" y="245.01600000000002"/>
      <point x="197.32000000000002" y="153.36"/>
      <point x="347.08000000000004" y="153.36" type="curve" smooth="yes"/>
      <point x="498.3800000000001" y="153.36"/>
      <point x="612.1999999999999" y="245.01600000000002"/>
      <point x="612.1999999999999" y="373.0" type="curve" smooth="yes"/>
      <point x="612.1999999999999" y="501.152"/>
      <point x="498.3800000000001" y="592.808"/>
      <point x="347.08000000000004" y="592.808" type="curve" smooth="yes"/>
      <point x="197.32000000000002" y="592.808"/>
      <point x="81.96" y="501.152"/>
    </contour>
    <contour>
      <point x="23.779999999999994" y="565.528" type="line"/>
      <point x="154.84" y="456.704" type="line"/>
      <point x="278.28000000000003" y="538.976" type="line"/>
      <point x="139.14000000000001" y="654.8" type="line"/>
    </contour>
    <contour>
      <point x="670.38" y="565.528" type="line"/>
      <point x="555.02" y="654.8" type="line"/>
      <point x="415.88" y="538.976" type="line"/>
      <point x="539.8599999999999" y="456.704" type="line"/>
    </contour>
    <contour>
      <point x="23.779999999999994" y="180.472" type="line"/>
      <point x="139.14000000000001" y="91.2" type="line"/>
      <point x="278.28000000000003" y="207.024" type="line"/>
      <point x="154.84" y="289.296" type="line"/>
    </contour>
    <contour>
      <point x="670.38" y="180.472" type="line"/>
      <point x="539.8599999999999" y="289.296" type="line"/>
      <point x="415.88" y="207.024" type="line"/>
      <point x="555.02" y="91.2" type="line"/>
    </contour>
  </outline>
</glyph>
<glyph name="f_f_b" format="2">
  <advance width="1689.3799999999997"/>
  <outline>
    <contour>
      <point x="1360.0" y="262.82399999999996" type="curve" smooth="yes"/>
      <point x="1360.0" y="160.12"/>
      <point x="1339.7600000000002" y="95.256"/>
      <point x="1284.1200000000001" y="95.256" type="curve" smooth="yes"/>
      <point x="1230.4799999999998" y="95.256"/>
      <point x="1211.78" y="143.256"/>
      <point x="1186.46" y="208.31199999999998" type="curve"/>
      <point x="1122.2" y="156.36" type="line"/>
      <point x="1169.7600000000002" y="40.84"/>
      <point x="1242.6399999999999" y="-10.0"/>
      <point x="1379.2399999999998" y="-10.0" type="curve" smooth="yes"/>
      <point x="1542.1599999999999" y="-10.0"/>
      <point x="1657.52" y="103.16"/>
      <point x="1657.52" y="262.82399999999996" type="curve" smooth="yes"/>
      <point x="1657.52" y="418.992"/>
      <point x="1552.7799999999997" y="522.992"/>
      <point x="1388.8600000000001" y="522.992" type="curve" smooth="yes"/>
      <point x="1269.96" y="522.992"/>
      <point x="1215.3200000000002" y="464.656"/>
      <point x="1149.5200000000002" y="349.96799999999996" type="curve"/>
      <point x="1188.0" y="293.688" type="line"/>
      <point x="1222.4" y="368.89599999999996"/>
      <point x="1246.1799999999998" y="417.736"/>
      <point x="1293.7399999999998" y="417.736" type="curve" smooth="yes"/>
      <point x="1341.3000000000002" y="417.736"/>
      <point x="1360.0" y="363.69599999999997"/>
    </contour>
    <contour>
      <point x="-3.552713678800501e-15" y="512.992" type="line"/>
      <point x="-3.552713678800501e-15" y="432.69599999999997" type="line"/>
      <point x="492.3" y="432.69599999999997" type="line"/>
      <point x="492.3" y="512.992" type="line"/>
    </contour>
    <contour>
      <point x="420.96" y="512.992" type="line"/>
      <point x="420.96" y="432.69599999999997" type="line"/>
      <point x="878.8600000000001" y="432.69599999999997" type="line"/>
      <point x="878.8600000000001" y="512.992" type="line"/>
    </contour>
    <contour>
      <point x="1217.3200000000002" y="730.84" type="line"/>
      <point x="885.9399999999998" y="730.84" type="line"/>
      <point x="926.4200000000002" y="674.856" type="line"/>
      <point x="926.4200000000002" y="-0.504" type="line"/>
      <point x="1101.96" y="-0.504" type="line"/>
      <point x="1189.0" y="105.168" type="line"/>
      <point x="1217.3200000000002" y="111.016" type="line"/>
    </contour>
    <contour>
      <point x="84.49999999999999" y="101.8" type="line" smooth="yes"/>
      <point x="84.49999999999999" y="80.28800000000001"/>
      <point x="66.80000000000001" y="70.792"/>
      <point x="33.400000000000006" y="70.792" type="curve" smooth="yes"/>
      <point x="19.24" y="70.792" type="line"/>
      <point x="19.24" y="0.0" type="line"/>
      <point x="418.41999999999996" y="0.0" type="line"/>
      <point x="418.41999999999996" y="70.792" type="line"/>
      <point x="414.88000000000005" y="70.792" type="line" smooth="yes"/>
      <point x="388.56000000000006" y="70.792"/>
      <point x="374.4" y="72.96000000000002"/>
      <point x="374.4" y="79.12799999999999" type="curve"/>
      <point x="374.4" y="575.304" type="line" smooth="yes"/>
      <point x="374.4" y="633.2080000000001"/>
      <point x="394.64" y="649.552"/>
      <point x="429.04" y="649.552" type="curve" smooth="yes"/>
      <point x="447.28" y="649.552"/>
      <point x="468.52" y="643.048"/>
      <point x="471.0600000000001" y="640.872" type="curve"/>
      <point x="471.0600000000001" y="724.6719999999999" type="line"/>
      <point x="455.3600000000001" y="730.6719999999999"/>
      <point x="412.34000000000003" y="737.168"/>
      <point x="361.24" y="737.168" type="curve" smooth="yes"/>
      <point x="211.48" y="737.168"/>
      <point x="84.49999999999999" y="685.1840000000001"/>
      <point x="84.49999999999999" y="532.872" type="curve" smooth="yes"/>
    </contour>
    <contour>
      <point x="851.54" y="0.0" type="line"/>
      <point x="851.54" y="70.792" type="line"/>
      <point x="842.9200000000001" y="70.792" type="line" smooth="yes"/>
      <point x="816.5999999999999" y="70.792"/>
      <point x="795.3600000000001" y="72.96000000000002"/>
      <point x="795.3600000000001" y="79.12799999999999" type="curve" smooth="yes"/>
      <point x="795.3600000000001" y="574.3280000000001" type="line" smooth="yes"/>
      <point x="795.3600000000001" y="637.2239999999999"/>
      <point x="820.1399999999999" y="660.2239999999999"/>
      <point x="871.78" y="660.2239999999999" type="curve" smooth="yes"/>
      <point x="923.8800000000001" y="660.2239999999999"/>
      <point x="958.2800000000001" y="634.904"/>
      <point x="981.0600000000002" y="573.912" type="curve"/>
      <point x="1106.04" y="694.84" type="line"/>
      <point x="1046.3200000000002" y="722.68"/>
      <point x="966.9000000000001" y="747.84"/>
      <point x="840.3800000000001" y="747.84" type="curve" smooth="yes"/>
      <point x="661.3" y="747.84"/>
      <point x="505.4600000000001" y="695.856"/>
      <point x="505.4600000000001" y="543.544" type="curve"/>
      <point x="505.4600000000001" y="79.12799999999999" type="line"/>
      <point x="505.4600000000001" y="72.96000000000002"/>
      <point x="492.3" y="70.792"/>
      <point x="469.52" y="70.792" type="curve" smooth="yes"/>
      <point x="468.52" y="70.792" type="line"/>
      <point x="468.52" y="0.0" type="line"/>
    </contour>
  </outline>
</glyph>
<glyph name="f_f_h.alt" format="2">
  <advance width="1678.7600000000002"/>
  <outline>
    <contour>
      <point x="374.4" y="79.12799999999999" type="curve" smooth="yes"/>
      <point x="374.4" y="543.344" type="line" smooth="yes"/>
      <point x="374.4" y="619.696"/>
      <point x="391.09999999999997" y="651.872"/>
      <point x="458.90000000000003" y="651.872" type="curve" smooth="yes"/>
      <point x="507.4599999999999" y="651.872"/>
      <point x="529.24" y="633.528"/>
      <point x="534.7800000000001" y="601.832" type="curve"/>
      <point x="564.6399999999999" y="624.528"/>
      <point x="555.02" y="676.024"/>
      <point x="505.4600000000001" y="674.16" type="curve"/>
      <point x="505.4600000000001" y="543.168" type="line"/>
      <point x="649.1399999999999" y="576.528" type="line"/>
      <point x="672.9200000000001" y="696.7840000000001" type="line"/>
      <point x="642.0600000000002" y="715.8"/>
      <point x="555.02" y="736.16"/>
      <point x="431.58000000000004" y="736.16" type="curve" smooth="yes"/>
      <point x="235.26" y="736.16"/>
      <point x="84.49999999999999" y="680.312"/>
      <point x="84.49999999999999" y="531.696" type="curve" smooth="yes"/>
      <point x="84.49999999999999" y="101.8" type="line"/>
      <point x="84.49999999999999" y="80.28800000000001"/>
      <point x="66.80000000000001" y="70.792"/>
      <point x="33.400000000000006" y="70.792" type="curve" smooth="yes"/>
      <point x="19.24" y="70.792" type="line"/>
      <point x="19.24" y="0.0" type="line"/>
      <point x="418.41999999999996" y="0.0" type="line"/>
      <point x="418.41999999999996" y="70.792" type="line"/>
      <point x="414.88000000000005" y="70.792" type="line" smooth="yes"/>
      <point x="388.56000000000006" y="70.792"/>
      <point x="374.4" y="72.96000000000002"/>
    </contour>
    <contour>
      <point x="505.4600000000001" y="79.12799999999999" type="line"/>
      <point x="505.4600000000001" y="72.96000000000002"/>
      <point x="492.29999999999995" y="70.792"/>
      <point x="469.52" y="70.792" type="curve" smooth="yes"/>
      <point x="468.52" y="70.792" type="line"/>
      <point x="468.52" y="0.0" type="line"/>
      <point x="835.8399999999999" y="0.0" type="line"/>
      <point x="835.8399999999999" y="70.792" type="line"/>
      <point x="832.3" y="70.792" type="line" smooth="yes"/>
      <point x="813.0600000000002" y="70.792"/>
      <point x="795.3600000000001" y="72.96000000000002"/>
      <point x="795.3600000000001" y="79.12799999999999" type="curve"/>
      <point x="795.3600000000001" y="574.3280000000001" type="line" smooth="yes"/>
      <point x="795.3600000000001" y="637.2239999999999"/>
      <point x="820.1399999999999" y="660.2239999999999"/>
      <point x="871.78" y="660.2239999999999" type="curve" smooth="yes"/>
      <point x="923.8800000000001" y="660.2239999999999"/>
      <point x="958.2800000000001" y="634.904"/>
      <point x="981.0600000000002" y="573.912" type="curve"/>
      <point x="1106.04" y="694.84" type="line"/>
      <point x="1046.3200000000002" y="722.68"/>
      <point x="966.9000000000001" y="747.84"/>
      <point x="840.3800000000001" y="747.84" type="curve" smooth="yes"/>
      <point x="661.3" y="747.84"/>
      <point x="505.4600000000001" y="695.856"/>
      <point x="505.4600000000001" y="543.544" type="curve"/>
    </contour>
    <contour>
      <point x="1338.7600000000002" y="79.12799999999999" type="line" smooth="yes"/>
      <point x="1338.7600000000002" y="72.96000000000002"/>
      <point x="1318.52" y="70.792"/>
      <point x="1304.3600000000001" y="70.792" type="curve" smooth="yes"/>
      <point x="1303.3600000000001" y="70.792" type="line"/>
      <point x="1303.3600000000001" y="0.0" type="line"/>
      <point x="1670.6799999999998" y="0.0" type="line"/>
      <point x="1670.6799999999998" y="70.792" type="line"/>
      <point x="1668.1399999999999" y="70.792" type="line" smooth="yes"/>
      <point x="1646.9" y="70.792"/>
      <point x="1630.2" y="76.96000000000001"/>
      <point x="1630.2" y="98.47200000000001" type="curve" smooth="yes"/>
      <point x="1630.2" y="345.352" type="line" smooth="yes"/>
      <point x="1630.2" y="461.344"/>
      <point x="1546.7000000000003" y="522.992"/>
      <point x="1419.7200000000003" y="522.992" type="curve" smooth="yes"/>
      <point x="1313.9799999999998" y="522.992"/>
      <point x="1233.02" y="475.144"/>
      <point x="1193.54" y="394.75199999999995" type="curve"/>
      <point x="1212.78" y="324.82399999999996" type="line"/>
      <point x="1233.02" y="376.384"/>
      <point x="1260.34" y="408.408"/>
      <point x="1296.2799999999997" y="408.408" type="curve" smooth="yes"/>
      <point x="1328.1399999999999" y="408.408"/>
      <point x="1338.7600000000002" y="388.55199999999996"/>
      <point x="1338.7600000000002" y="347.66400000000004" type="curve" smooth="yes"/>
    </contour>
    <contour>
      <point x="885.9399999999998" y="0.0" type="line"/>
      <point x="1253.2600000000002" y="0.0" type="line"/>
      <point x="1253.2600000000002" y="70.792" type="line"/>
      <point x="1249.7200000000003" y="70.792" type="line" smooth="yes"/>
      <point x="1237.56" y="70.792"/>
      <point x="1217.3200000000002" y="72.96000000000002"/>
      <point x="1217.3200000000002" y="79.12799999999999" type="curve"/>
      <point x="1217.3200000000002" y="730.84" type="line"/>
      <point x="885.9399999999998" y="730.84" type="line"/>
      <point x="926.4200000000002" y="694.856" type="line"/>
      <point x="926.4200000000002" y="79.12799999999999" type="line"/>
      <point x="926.4200000000002" y="72.96000000000002"/>
      <point x="906.1800000000001" y="70.792"/>
      <point x="891.48" y="70.792" type="curve" smooth="yes"/>
      <point x="885.9399999999998" y="70.792" type="line"/>
    </contour>
    <contour>
      <point x="-3.552713678800501e-15" y="512.992" type="line"/>
      <point x="-3.552713678800501e-15" y="432.69599999999997" type="line"/>
      <point x="492.3" y="432.69599999999997" type="line"/>
      <point x="492.3" y="512.992" type="line"/>
    </contour>
    <contour>
      <point x="420.96" y="512.992" type="line"/>
      <point x="420.96" y="432.69599999999997" type="line"/>
      <point x="878.8600000000001" y="432.69599999999997" type="line"/>
      <point x="878.8600000000001" y="512.992" type="line"/>
    </contour>
  </outline>
</glyph>
<glyph name="f_f_i.alt" format="2">
  <advance width="1271.96"/>
  <outline>
    <contour>
      <point x="-3.552713678800501e-15" y="512.992" type="line"/>
      <point x="-3.552713678800501e-15" y="432.69599999999997" type="line"/>
      <point x="520.6199999999999" y="432.69599999999997" type="line"/>
      <point x="520.6199999999999" y="512.992" type="line"/>
    </contour>
    <contour>
      <point x="420.96" y="512.992" type="line"/>
      <point x="420.96" y="432.69599999999997" type="line"/>
      <point x="923.8800000000001" y="432.69599999999997" type="line"/>
      <point x="923.8800000000001" y="512.992" type="line"/>
    </contour>
    <contour>
      <point x="889.48" y="0.0" type="line"/>
      <point x="1257.8" y="0.0" type="line"/>
      <point x="1257.8" y="70.792" type="line"/>
      <point x="1256.8" y="70.792" type="line" smooth="yes"/>
      <point x="1235.5600000000002" y="70.792"/>
      <point x="1217.3200000000002" y="76.96000000000001"/>
      <point x="1217.3200000000002" y="98.47200000000001" type="curve" smooth="yes"/>
      <point x="1217.3200000000002" y="512.992" type="line"/>
      <point x="885.9399999999998" y="512.992" type="line"/>
      <point x="885.9399999999998" y="432.69599999999997" type="line"/>
      <point x="894.0200000000001" y="432.69599999999997" type="line" smooth="yes"/>
      <point x="919.3399999999999" y="432.69599999999997"/>
      <point x="926.4200000000002" y="421.688"/>
      <point x="926.4200000000002" y="403.504" type="curve"/>
      <point x="926.4200000000002" y="79.12799999999999" type="line"/>
      <point x="926.4200000000002" y="72.96000000000002"/>
      <point x="906.1800000000001" y="70.792"/>
      <point x="894.0200000000001" y="70.792" type="curve" smooth="yes"/>
      <point x="889.48" y="70.792" type="line"/>
    </contour>
    <contour>
      <point x="795.3600000000001" y="79.12799999999999" type="curve" smooth="yes"/>
      <point x="795.3600000000001" y="555.024" type="line" smooth="yes"/>
      <point x="795.3600000000001" y="631.376"/>
      <point x="820.6800000000001" y="663.552"/>
      <point x="899.0999999999999" y="663.552" type="curve" smooth="yes"/>
      <point x="950.2" y="663.552"/>
      <point x="974.98" y="645.88"/>
      <point x="981.0600000000001" y="632.192" type="curve"/>
      <point x="1012.92" y="636.88"/>
      <point x="1005.8399999999999" y="687.872"/>
      <point x="953.7399999999999" y="689.3679999999999" type="curve"/>
      <point x="953.7399999999999" y="579.888" type="line"/>
      <point x="1184.46" y="579.888" type="line"/>
      <point x="1184.46" y="703.848" type="line"/>
      <point x="1133.3600000000001" y="723.0"/>
      <point x="1026.08" y="747.84"/>
      <point x="883.4" y="747.84" type="curve" smooth="yes"/>
      <point x="671.92" y="747.84"/>
      <point x="505.4600000000001" y="691.992"/>
      <point x="505.4600000000001" y="543.376" type="curve" smooth="yes"/>
      <point x="505.4600000000001" y="79.12799999999999" type="line"/>
      <point x="505.4600000000001" y="72.96000000000002"/>
      <point x="485.2199999999999" y="70.792"/>
      <point x="473.05999999999995" y="70.792" type="curve" smooth="yes"/>
      <point x="468.52" y="70.792" type="line"/>
      <point x="468.52" y="0.0" type="line"/>
      <point x="839.3800000000001" y="0.0" type="line"/>
      <point x="839.3800000000001" y="70.792" type="line"/>
      <point x="835.8399999999999" y="70.792" type="line" smooth="yes"/>
      <point x="809.5200000000002" y="70.792"/>
      <point x="795.3600000000001" y="72.96000000000002"/>
    </contour>
    <contour>
      <point x="374.4" y="79.12799999999999" type="curve" smooth="yes"/>
      <point x="374.4" y="543.344" type="line" smooth="yes"/>
      <point x="374.4" y="619.696"/>
      <point x="391.1" y="651.872"/>
      <point x="458.90000000000003" y="651.872" type="curve" smooth="yes"/>
      <point x="507.46" y="651.872"/>
      <point x="529.24" y="634.032"/>
      <point x="535.3199999999999" y="602.84" type="curve"/>
      <point x="535.3199999999999" y="652.488"/>
      <point x="555.02" y="676.024"/>
      <point x="505.4600000000001" y="674.16" type="curve"/>
      <point x="505.4600000000001" y="543.168" type="line"/>
      <point x="649.1399999999999" y="576.528" type="line"/>
      <point x="672.9200000000001" y="697.7919999999999" type="line"/>
      <point x="642.0600000000002" y="716.304"/>
      <point x="555.02" y="736.16"/>
      <point x="431.58000000000004" y="736.16" type="curve" smooth="yes"/>
      <point x="235.26" y="736.16"/>
      <point x="84.49999999999999" y="680.312"/>
      <point x="84.49999999999999" y="531.696" type="curve" smooth="yes"/>
      <point x="84.49999999999999" y="101.8" type="line"/>
      <point x="84.49999999999999" y="80.28800000000001"/>
      <point x="66.80000000000001" y="70.792"/>
      <point x="33.400000000000006" y="70.792" type="curve" smooth="yes"/>
      <point x="19.24" y="70.792" type="line"/>
      <point x="19.24" y="0.0" type="line"/>
      <point x="418.41999999999996" y="0.0" type="line"/>
      <point x="418.41999999999996" y="70.792" type="line"/>
      <point x="414.88000000000005" y="70.792" type="line" smooth="yes"/>
      <point x="388.56000000000006" y="70.792"/>
      <point x="374.4" y="72.96000000000002"/>
    </contour>
  </outline>
</glyph>
<glyph name="f_f_j.alt" format="2">
  <advance width="1256.8"/>
  <outline>
    <contour>
      <point x="374.4" y="79.12799999999999" type="curve" smooth="yes"/>
      <point x="374.4" y="551.664" type="line" smooth="yes"/>
      <point x="374.4" y="628.016"/>
      <point x="391.1" y="660.192"/>
      <point x="445.74" y="660.192" type="curve" smooth="yes"/>
      <point x="474.59999999999997" y="660.192"/>
      <point x="493.3" y="648.176"/>
      <point x="499.38000000000005" y="633.624" type="curve"/>
      <point x="529.24" y="639.176"/>
      <point x="522.16" y="684.344"/>
      <point x="472.06" y="682.48" type="curve"/>
      <point x="472.06" y="568.128" type="line"/>
      <point x="666.8399999999999" y="576.528" type="line"/>
      <point x="666.8399999999999" y="706.112" type="line"/>
      <point x="620.8199999999999" y="724.624"/>
      <point x="549.48" y="744.48"/>
      <point x="429.0400000000001" y="744.48" type="curve" smooth="yes"/>
      <point x="225.64000000000004" y="744.48"/>
      <point x="84.49999999999999" y="688.6320000000001"/>
      <point x="84.49999999999999" y="540.016" type="curve" smooth="yes"/>
      <point x="84.49999999999999" y="101.8" type="line"/>
      <point x="84.49999999999999" y="80.28800000000001"/>
      <point x="66.80000000000001" y="70.792"/>
      <point x="33.400000000000006" y="70.792" type="curve" smooth="yes"/>
      <point x="19.24" y="70.792" type="line"/>
      <point x="19.24" y="0.0" type="line"/>
      <point x="418.41999999999996" y="0.0" type="line"/>
      <point x="418.41999999999996" y="70.792" type="line"/>
      <point x="414.88000000000005" y="70.792" type="line" smooth="yes"/>
      <point x="388.56000000000006" y="70.792"/>
      <point x="374.4" y="72.96000000000002"/>
    </contour>
    <contour>
      <point x="505.4600000000001" y="79.12799999999999" type="line" smooth="yes"/>
      <point x="505.4600000000001" y="72.96000000000002"/>
      <point x="485.21999999999997" y="70.792"/>
      <point x="473.06000000000006" y="70.792" type="curve" smooth="yes"/>
      <point x="468.52" y="70.792" type="line"/>
      <point x="468.52" y="0.0" type="line"/>
      <point x="839.3800000000001" y="0.0" type="line"/>
      <point x="839.3800000000001" y="70.792" type="line"/>
      <point x="835.8399999999999" y="70.792" type="line" smooth="yes"/>
      <point x="809.5200000000002" y="70.792"/>
      <point x="795.3600000000001" y="72.96000000000002"/>
      <point x="795.3600000000001" y="79.12799999999999" type="curve"/>
      <point x="795.3600000000001" y="555.024" type="line" smooth="yes"/>
      <point x="795.3600000000001" y="631.376"/>
      <point x="820.1399999999999" y="663.552"/>
      <point x="899.0999999999999" y="663.552" type="curve" smooth="yes"/>
      <point x="950.2" y="663.552"/>
      <point x="974.98" y="645.88"/>
      <point x="981.0600000000001" y="632.192" type="curve"/>
      <point x="1012.92" y="636.88"/>
      <point x="1005.8399999999999" y="687.872"/>
      <point x="953.7399999999999" y="689.3679999999999" type="curve"/>
      <point x="953.7399999999999" y="579.888" type="line"/>
      <point x="1184.46" y="579.888" type="line"/>
      <point x="1184.46" y="703.848" type="line"/>
      <point x="1133.3600000000001" y="723.0"/>
      <point x="1026.08" y="747.84"/>
      <point x="883.4" y="747.84" type="curve" smooth="yes"/>
      <point x="671.92" y="747.84"/>
      <point x="505.4600000000001" y="691.992"/>
      <point x="505.4600000000001" y="543.376" type="curve" smooth="yes"/>
    </contour>
    <contour>
      <point x="926.4200000000002" y="-27.528" type="line" smooth="yes"/>
      <point x="926.4200000000002" y="-117.37599999999999"/>
      <point x="901.0999999999999" y="-146.544"/>
      <point x="849.0" y="-146.544" type="curve" smooth="yes"/>
      <point x="813.0600000000001" y="-146.544"/>
      <point x="784.74" y="-136.55200000000002"/>
      <point x="760.96" y="-128.888" type="curve"/>
      <point x="760.96" y="-221.008" type="line"/>
      <point x="778.6600000000001" y="-227.83999999999997"/>
      <point x="836.8399999999999" y="-236.0"/>
      <point x="907.1800000000001" y="-236.0" type="curve" smooth="yes"/>
      <point x="1121.2" y="-236.0"/>
      <point x="1216.3200000000002" y="-173.2"/>
      <point x="1216.3200000000002" y="-0.9040000000000106" type="curve" smooth="yes"/>
      <point x="1216.3200000000002" y="512.992" type="line"/>
      <point x="873.78" y="512.992" type="line"/>
      <point x="873.78" y="432.69599999999997" type="line"/>
      <point x="894.0200000000001" y="432.69599999999997" type="line" smooth="yes"/>
      <point x="919.3399999999999" y="432.69599999999997"/>
      <point x="926.4200000000002" y="421.688"/>
      <point x="926.4200000000002" y="403.504" type="curve" smooth="yes"/>
    </contour>
    <contour>
      <point x="-3.552713678800501e-15" y="512.992" type="line"/>
      <point x="-3.552713678800501e-15" y="432.69599999999997" type="line"/>
      <point x="492.29999999999995" y="432.69599999999997" type="line"/>
      <point x="492.29999999999995" y="512.992" type="line"/>
    </contour>
    <contour>
      <point x="420.96" y="512.992" type="line"/>
      <point x="420.96" y="432.69599999999997" type="line"/>
      <point x="923.8800000000001" y="432.69599999999997" type="line"/>
      <point x="923.8800000000001" y="512.992" type="line"/>
    </contour>
  </outline>
</glyph>
<glyph name="fi.alt" format="2">
  <advance width="851.0"/>
  <outline>
    <contour>
      <point x="-3.552713678800501e-15" y="512.992" type="line"/>
      <point x="-3.552713678800501e-15" y="432.69599999999997" type="line"/>
      <point x="502.91999999999996" y="432.69599999999997" type="line"/>
      <point x="502.91999999999996" y="512.992" type="line"/>
    </contour>
    <contour>
      <point x="505.4600000000001" y="79.12799999999999" type="line" smooth="yes"/>
      <point x="505.4600000000001" y="72.96000000000002"/>
      <point x="485.2199999999999" y="70.792"/>
      <point x="473.06000000000006" y="70.792" type="curve" smooth="yes"/>
      <point x="468.52" y="70.792" type="line"/>
      <point x="468.52" y="0.0" type="line"/>
      <point x="836.8399999999999" y="0.0" type="line"/>
      <point x="836.8399999999999" y="70.792" type="line"/>
      <point x="835.8399999999999" y="70.792" type="line" smooth="yes"/>
      <point x="814.6" y="70.792"/>
      <point x="796.3600000000001" y="76.96000000000001"/>
      <point x="796.3600000000001" y="98.47200000000001" type="curve" smooth="yes"/>
      <point x="796.3600000000001" y="512.992" type="line"/>
      <point x="464.98" y="512.992" type="line"/>
      <point x="464.98" y="432.69599999999997" type="line"/>
      <point x="473.05999999999995" y="432.69599999999997" type="line" smooth="yes"/>
      <point x="498.38" y="432.69599999999997"/>
      <point x="505.4600000000001" y="421.688"/>
      <point x="505.4600000000001" y="403.504" type="curve" smooth="yes"/>
    </contour>
    <contour>
      <point x="84.49999999999999" y="101.8" type="line" smooth="yes"/>
      <point x="84.49999999999999" y="80.28800000000001"/>
      <point x="66.80000000000001" y="70.792"/>
      <point x="33.400000000000006" y="70.792" type="curve" smooth="yes"/>
      <point x="19.24" y="70.792" type="line"/>
      <point x="19.24" y="0.0" type="line"/>
      <point x="418.41999999999996" y="0.0" type="line"/>
      <point x="418.41999999999996" y="70.792" type="line"/>
      <point x="414.88" y="70.792" type="line" smooth="yes"/>
      <point x="388.56000000000006" y="70.792"/>
      <point x="374.4" y="72.96000000000002"/>
      <point x="374.4" y="79.12799999999999" type="curve" smooth="yes"/>
      <point x="374.4" y="555.024" type="line" smooth="yes"/>
      <point x="374.4" y="631.376"/>
      <point x="399.71999999999997" y="663.552"/>
      <point x="478.1400000000001" y="663.552" type="curve" smooth="yes"/>
      <point x="529.24" y="663.552"/>
      <point x="554.02" y="645.88"/>
      <point x="560.0999999999999" y="632.192" type="curve"/>
      <point x="591.96" y="636.88"/>
      <point x="584.8800000000001" y="687.872"/>
      <point x="532.78" y="689.3679999999999" type="curve"/>
      <point x="532.78" y="579.888" type="line"/>
      <point x="763.5" y="579.888" type="line"/>
      <point x="763.5" y="703.848" type="line"/>
      <point x="712.4" y="723.0"/>
      <point x="605.1199999999999" y="747.84"/>
      <point x="462.44000000000005" y="747.84" type="curve" smooth="yes"/>
      <point x="250.95999999999998" y="747.84"/>
      <point x="84.49999999999999" y="691.992"/>
      <point x="84.49999999999999" y="543.376" type="curve" smooth="yes"/>
    </contour>
  </outline>
</glyph>
<glyph name="peseta.proportional" format="2">
  <advance width="1053.4"/>
  <outline>
    <contour>
      <point x="29.860000000000007" y="0.0" type="line"/>
      <point x="407.79999999999995" y="0.0" type="line"/>
      <point x="407.79999999999995" y="76.11999999999999" type="line"/>
      <point x="385.0199999999999" y="76.11999999999999" type="line" smooth="yes"/>
      <point x="363.7800000000001" y="76.11999999999999"/>
      <point x="337.4600000000001" y="79.11999999999999"/>
      <point x="337.4600000000001" y="86.11999999999999" type="curve" smooth="yes"/>
      <point x="337.4600000000001" y="258.36" type="line"/>
      <point x="363.78000000000003" y="258.36" type="line" smooth="yes"/>
      <point x="574.69584905672" y="258.36"/>
      <point x="685.0799999999999" y="366.0"/>
      <point x="685.0799999999999" y="487.67999999999995" type="curve" smooth="yes"/>
      <point x="685.0799999999999" y="622.6719999999999"/>
      <point x="569.7375862076399" y="710.0"/>
      <point x="333.91999999999996" y="710.0" type="curve" smooth="yes"/>
      <point x="29.860000000000007" y="710.0" type="line"/>
      <point x="29.860000000000007" y="633.88" type="line"/>
      <point x="41.480000000000004" y="633.88" type="line" smooth="yes"/>
      <point x="71.33999999999999" y="633.88"/>
      <point x="92.57999999999998" y="626.88"/>
      <point x="92.57999999999998" y="597.88" type="curve" smooth="yes"/>
      <point x="92.57999999999998" y="112.11999999999999" type="line" smooth="yes"/>
      <point x="92.57999999999998" y="83.11999999999999"/>
      <point x="71.33999999999999" y="76.11999999999999"/>
      <point x="41.480000000000004" y="76.11999999999999" type="curve" smooth="yes"/>
      <point x="29.860000000000007" y="76.11999999999999" type="line"/>
    </contour>
    <contour>
      <point x="357.7" y="617.2239999999999" type="line" smooth="yes"/>
      <point x="423.82493150744" y="617.2239999999999"/>
      <point x="450.82" y="573.2"/>
      <point x="450.82" y="486.67999999999995" type="curve" smooth="yes"/>
      <point x="450.82" y="400.16"/>
      <point x="422.86820512860004" y="350.8"/>
      <point x="352.1600000000001" y="350.8" type="curve" smooth="yes"/>
      <point x="337.4600000000001" y="350.8" type="line"/>
      <point x="337.4600000000001" y="617.2239999999999" type="line"/>
    </contour>
    <contour>
      <point x="638.52" y="417.72" type="line"/>
      <point x="1034.16" y="417.72" type="line"/>
      <point x="1034.16" y="508.0" type="line"/>
      <point x="832.3" y="508.0" type="line"/>
      <point x="745.2600000000001" y="560.488" type="line"/>
      <point x="745.2600000000001" y="510.33599999999996"/>
      <point x="724.0200000000002" y="500.504"/>
      <point x="679.0" y="500.504" type="curve" smooth="yes"/>
      <point x="658.76" y="500.504" type="line"/>
    </contour>
    <contour>
      <point x="954.7399999999999" y="140.0" type="curve" smooth="yes"/>
      <point x="954.7399999999999" y="648.0" type="line"/>
      <point x="745.2600000000001" y="648.0" type="line"/>
      <point x="745.2600000000001" y="500.0" type="line"/>
      <point x="715.9399999999999" y="457.88800000000003" type="line"/>
      <point x="715.9399999999999" y="139.0" type="line" smooth="yes"/>
      <point x="715.9399999999999" y="28.311999999999998"/>
      <point x="805.9799999999998" y="-11.0"/>
      <point x="931.96" y="-11.0" type="curve" smooth="yes"/>
      <point x="983.0600000000002" y="-11.0"/>
      <point x="1014.46" y="-7.0"/>
      <point x="1034.16" y="-1.1680000000000001" type="curve"/>
      <point x="1034.16" y="90.77599999999998" type="line"/>
      <point x="1028.6200000000003" y="89.43999999999998"/>
      <point x="1014.4599999999999" y="87.272"/>
      <point x="999.7600000000002" y="87.272" type="curve" smooth="yes"/>
      <point x="971.4399999999999" y="87.272"/>
      <point x="954.7399999999999" y="101.61600000000001"/>
    </contour>
  </outline>
</glyph>
<glyph name="peso.proportional" format="2">
  <advance width="899.5600000000001"/>
  <outline>
    <contour>
      <point x="47.56" y="0.0" type="line"/>
      <point x="465.98" y="0.0" type="line"/>
      <point x="465.98" y="76.11999999999999" type="line"/>
      <point x="437.65999999999997" y="76.11999999999999" type="line" smooth="yes"/>
      <point x="415.88000000000005" y="76.11999999999999"/>
      <point x="390.1" y="79.11999999999999"/>
      <point x="390.1" y="86.11999999999999" type="curve" smooth="yes"/>
      <point x="390.1" y="225.72" type="line"/>
      <point x="434.1200000000001" y="225.72" type="line" smooth="yes"/>
      <point x="662.3" y="225.72"/>
      <point x="789.2800000000001" y="319.72"/>
      <point x="789.2800000000001" y="474.688" type="curve" smooth="yes"/>
      <point x="789.2800000000001" y="624.664"/>
      <point x="670.38" y="710.0"/>
      <point x="440.20000000000005" y="710.0" type="curve" smooth="yes"/>
      <point x="47.56" y="710.0" type="line"/>
      <point x="47.56" y="633.88" type="line"/>
      <point x="59.72" y="633.88" type="line" smooth="yes"/>
      <point x="89.04" y="633.88"/>
      <point x="110.82000000000001" y="626.88"/>
      <point x="110.82000000000001" y="597.88" type="curve" smooth="yes"/>
      <point x="110.82000000000001" y="112.11999999999999" type="line" smooth="yes"/>
      <point x="110.82000000000001" y="83.11999999999999"/>
      <point x="89.04" y="76.11999999999999"/>
      <point x="59.72" y="76.11999999999999" type="curve" smooth="yes"/>
      <point x="47.56" y="76.11999999999999" type="line"/>
    </contour>
    <contour>
      <point x="421.96000000000004" y="623.048" type="line" smooth="yes"/>
      <point x="482.68000000000006" y="623.048"/>
      <point x="520.6199999999999" y="576.856"/>
      <point x="520.6199999999999" y="470.36" type="curve" smooth="yes"/>
      <point x="520.6199999999999" y="363.86400000000003"/>
      <point x="482.68" y="312.33599999999996"/>
      <point x="418.4200000000001" y="312.33599999999996" type="curve" smooth="yes"/>
      <point x="390.1" y="312.33599999999996" type="line"/>
      <point x="390.1" y="623.048" type="line"/>
    </contour>
    <contour>
      <point x="47.56" y="508.33599999999996" type="line"/>
      <point x="47.56" y="428.048" type="line"/>
      <point x="268.66" y="428.048" type="line"/>
      <point x="313.68000000000006" y="436.368" type="line"/>
      <point x="683.54" y="436.368" type="line"/>
      <point x="737.1800000000001" y="428.048" type="line"/>
      <point x="872.78" y="428.048" type="line"/>
      <point x="872.78" y="508.33599999999996" type="line"/>
      <point x="752.8800000000001" y="508.33599999999996" type="line"/>
      <point x="701.24" y="500.016" type="line"/>
      <point x="280.81999999999994" y="500.016" type="line"/>
      <point x="254.5" y="508.33599999999996" type="line"/>
    </contour>
  </outline>
</glyph>
<glyph name="seven.lin" format="2">
  <advance width="665.8399999999999"/>
  <outline>
    <contour>
      <point x="267.65999999999997" y="563.944" type="line" smooth="yes"/>
      <point x="194.77999999999997" y="563.944"/>
      <point x="167.45999999999998" y="556.944"/>
      <point x="162.92000000000002" y="520.944" type="curve" smooth="yes"/>
      <point x="154.84000000000003" y="445.92" type="line"/>
      <point x="59.720000000000006" y="445.92" type="line"/>
      <point x="59.720000000000006" y="710.0" type="line"/>
      <point x="641.0600000000002" y="710.0" type="line"/>
      <point x="641.0600000000002" y="577.424" type="line"/>
      <point x="517.08" y="434.216"/>
      <point x="445.74" y="308.66400000000004"/>
      <point x="437.65999999999997" y="0.0" type="curve"/>
      <point x="176.07999999999998" y="0.0" type="line"/>
      <point x="200.85999999999999" y="293.67999999999995"/>
      <point x="448.2800000000001" y="516.6080000000001"/>
      <point x="557.5600000000001" y="598.744" type="curve"/>
      <point x="588.42" y="563.944" type="line"/>
    </contour>
  </outline>
</glyph>
<glyph name="sterling.proportional" format="2">
  <advance width="743.2600000000001"/>
  <outline>
    <contour>
      <point x="47.56000000000001" y="395.784" type="line"/>
      <point x="47.56000000000001" y="293.528" type="line"/>
      <point x="587.42" y="293.528" type="line"/>
      <point x="587.42" y="395.784" type="line"/>
    </contour>
    <contour>
      <point x="492.29999999999995" y="-10.0" type="curve" smooth="yes"/>
      <point x="619.28" y="-10.0"/>
      <point x="692.1600000000001" y="78.49600000000001"/>
      <point x="725.5600000000001" y="185.648" type="curve"/>
      <point x="605.1199999999999" y="216.96" type="line"/>
      <point x="581.3399999999999" y="153.272"/>
      <point x="551.48" y="128.256"/>
      <point x="487.7600000000001" y="128.256" type="curve" smooth="yes"/>
      <point x="424.5" y="128.256"/>
      <point x="390.1" y="154.42399999999998"/>
      <point x="322.29999999999995" y="211.936" type="curve"/>
      <point x="278.2800000000001" y="202.10399999999998"/>
      <point x="229.71999999999997" y="155.64"/>
      <point x="231.72000000000003" y="131.816" type="curve"/>
      <point x="345.08000000000004" y="41.488"/>
      <point x="401.7199999999999" y="-10.0"/>
    </contour>
    <contour>
      <point x="424.5" y="626.384" type="curve" smooth="yes"/>
      <point x="454.3600000000001" y="626.384"/>
      <point x="475.6" y="614.3599999999999"/>
      <point x="491.3" y="589.344" type="curve"/>
      <point x="525.7" y="599.704"/>
      <point x="525.7" y="629.696"/>
      <point x="473.05999999999995" y="630.032" type="curve"/>
      <point x="473.05999999999995" y="515.712" type="line"/>
      <point x="681.54" y="515.712" type="line"/>
      <point x="681.54" y="660.3280000000001" type="line"/>
      <point x="630.4399999999999" y="692.152"/>
      <point x="545.9399999999999" y="719.664"/>
      <point x="405.2600000000001" y="719.664" type="curve" smooth="yes"/>
      <point x="186.7" y="719.664"/>
      <point x="78.42000000000002" y="633.176"/>
      <point x="78.42000000000002" y="526.984" type="curve" smooth="yes"/>
      <point x="78.42000000000002" y="402.672"/>
      <point x="191.24" y="341.16"/>
      <point x="191.24" y="231.98399999999998" type="curve" smooth="yes"/>
      <point x="191.24" y="167.62399999999997"/>
      <point x="140.14000000000004" y="127.112"/>
      <point x="47.56" y="105.256" type="curve"/>
      <point x="47.56" y="-10.503999999999998" type="line"/>
      <point x="278.28000000000003" y="17.512"/>
      <point x="400.71999999999997" y="140.128"/>
      <point x="400.71999999999997" y="260.296" type="curve" smooth="yes"/>
      <point x="400.71999999999997" y="381.784"/>
      <point x="349.62" y="459.088"/>
      <point x="349.62" y="541.136" type="curve" smooth="yes"/>
      <point x="349.62" y="595.856"/>
      <point x="374.4" y="626.384"/>
    </contour>
  </outline>
</glyph>
<glyph name="three.den" format="2">
  <advance width="436.6600000000001"/>
  <outline>
    <contour>
      <point x="180.62" y="57.29600000000001" type="curve" smooth="yes"/>
      <point x="215.02" y="57.29600000000001"/>
      <point x="238.79999999999998" y="75.464"/>
      <point x="238.79999999999998" y="110.48" type="curve" smooth="yes"/>
      <point x="238.79999999999998" y="145.98399999999998"/>
      <point x="215.02" y="163.328"/>
      <point x="159.38000000000005" y="163.328" type="curve" smooth="yes"/>
      <point x="129.52" y="163.328" type="line"/>
      <point x="129.52" y="219.464" type="line"/>
      <point x="152.3" y="219.464" type="line" smooth="yes"/>
      <point x="207.94000000000003" y="219.464"/>
      <point x="234.26" y="232.8"/>
      <point x="234.26" y="277.632" type="curve" smooth="yes"/>
      <point x="234.26" y="305.312"/>
      <point x="221.10000000000002" y="318.47999999999996"/>
      <point x="194.78000000000003" y="318.47999999999996" type="curve" smooth="yes"/>
      <point x="163.92000000000002" y="318.47999999999996"/>
      <point x="141.68000000000004" y="299.144"/>
      <point x="133.06" y="278.64" type="curve"/>
      <point x="132.06" y="302.13599999999997"/>
      <point x="138.14000000000004" y="320.296"/>
      <point x="159.38000000000005" y="322.46400000000006" type="curve"/>
      <point x="159.38000000000005" y="263.296" type="line"/>
      <point x="28.319999999999993" y="263.296" type="line"/>
      <point x="28.319999999999993" y="305.808" type="line"/>
      <point x="53.64" y="343.456"/>
      <point x="117.89999999999999" y="377.616"/>
      <point x="221.10000000000002" y="377.616" type="curve" smooth="yes"/>
      <point x="331.91999999999996" y="377.616"/>
      <point x="410.34000000000003" y="345.952"/>
      <point x="410.34000000000003" y="284.46400000000006" type="curve" smooth="yes"/>
      <point x="410.34000000000003" y="213.32"/>
      <point x="301.05999999999995" y="186.98399999999998"/>
      <point x="163.92000000000002" y="188.648" type="curve"/>
      <point x="173.54000000000002" y="197.31199999999998" type="line"/>
      <point x="350.62" y="198.976"/>
      <point x="420.96000000000015" y="167.8"/>
      <point x="420.96000000000015" y="104.32" type="curve" smooth="yes"/>
      <point x="420.96000000000015" y="32.16"/>
      <point x="331.91999999999996" y="-6.832000000000001"/>
      <point x="207.94000000000003" y="-6.832000000000001" type="curve" smooth="yes"/>
      <point x="82.95999999999997" y="-6.832000000000001"/>
      <point x="27.32" y="39.824000000000005"/>
      <point x="4.539999999999996" y="94.32" type="curve"/>
      <point x="81.96000000000001" y="130.136" type="line"/>
      <point x="99.66" y="98.632"/>
      <point x="132.05999999999997" y="57.29600000000001"/>
    </contour>
  </outline>
</glyph>
<glyph name="won.proportional" format="2">
  <advance width="1182.92"/>
  <outline>
    <contour>
      <point x="29.86" y="710.0" type="line"/>
      <point x="29.86" y="633.88" type="line"/>
      <point x="37.93999999999999" y="633.88" type="line" smooth="yes"/>
      <point x="64.26" y="633.88"/>
      <point x="84.5" y="628.384"/>
      <point x="89.03999999999999" y="604.3679999999999" type="curve" smooth="yes"/>
      <point x="217.56" y="0.0" type="line"/>
      <point x="517.08" y="0.0" type="line"/>
      <point x="620.8199999999999" y="637.24" type="line"/>
      <point x="591.9600000000002" y="654.888" type="line"/>
      <point x="689.6200000000001" y="0.0" type="line"/>
      <point x="972.4399999999998" y="0.0" type="line"/>
      <point x="1093.88" y="590.88" type="line" smooth="yes"/>
      <point x="1100.96" y="624.048"/>
      <point x="1117.66" y="633.88"/>
      <point x="1145.9799999999998" y="633.88" type="curve" smooth="yes"/>
      <point x="1153.6000000000001" y="633.88" type="line"/>
      <point x="1153.6000000000001" y="710.0" type="line"/>
      <point x="938.04" y="710.0" type="line"/>
      <point x="938.04" y="633.88" type="line"/>
      <point x="953.7399999999999" y="633.88" type="line" smooth="yes"/>
      <point x="972.4399999999998" y="633.88"/>
      <point x="995.2200000000001" y="626.88"/>
      <point x="995.2200000000001" y="615.88" type="curve"/>
      <point x="897.5600000000001" y="92.38400000000001" type="line"/>
      <point x="924.8800000000001" y="112.36000000000001" type="line"/>
      <point x="833.3" y="710.0" type="line"/>
      <point x="550.48" y="710.0" type="line"/>
      <point x="444.74" y="79.392" type="line"/>
      <point x="472.06000000000006" y="90.71199999999999" type="line"/>
      <point x="386.55999999999995" y="623.88" type="line"/>
      <point x="386.55999999999995" y="630.88"/>
      <point x="411.34000000000003" y="633.88"/>
      <point x="431.58000000000004" y="633.88" type="curve" smooth="yes"/>
      <point x="445.74" y="633.88" type="line"/>
      <point x="445.74" y="710.0" type="line"/>
    </contour>
    <contour>
      <point x="29.86" y="478.632" type="line"/>
      <point x="29.86" y="401.672" type="line"/>
      <point x="322.29999999999995" y="401.672" type="line"/>
      <point x="352.15999999999997" y="401.672" type="line"/>
      <point x="526.7" y="401.672" type="line"/>
      <point x="550.48" y="478.632" type="line"/>
    </contour>
    <contour>
      <point x="738.1800000000001" y="401.672" type="line"/>
      <point x="1006.8399999999999" y="401.672" type="line"/>
      <point x="1019.0" y="401.672" type="line"/>
      <point x="1153.6000000000001" y="401.672" type="line"/>
      <point x="1153.6000000000001" y="478.632" type="line"/>
      <point x="721.48" y="478.632" type="line"/>
    </contour>
    <contour>
      <point x="509.0" y="228.68" type="line"/>
      <point x="795.3600000000001" y="228.68" type="line"/>
      <point x="784.74" y="305.64" type="line"/>
      <point x="526.7" y="305.64" type="line"/>
    </contour>
    <contour>
      <point x="997.7600000000002" y="228.68" type="line"/>
      <point x="1153.6000000000001" y="228.68" type="line"/>
      <point x="1153.6000000000001" y="305.64" type="line"/>
      <point x="1006.8399999999999" y="305.64" type="line"/>
    </contour>
    <contour>
      <point x="197.32000000000002" y="305.64" type="line"/>
      <point x="29.86" y="305.64" type="line"/>
      <point x="29.86" y="228.68" type="line"/>
      <point x="207.94000000000003" y="228.68" type="line"/>
    </contour>
  </outline>
</glyph>
<glyph name="zero.old" format="2">
  <advance width="665.8399999999999"/>
  <outline>
    <contour>
      <point x="332.91999999999996" y="-11.168000000000001" type="curve" smooth="yes"/>
      <point x="519.6199999999999" y="-11.168000000000001"/>
      <point x="652.6800000000001" y="97.34400000000001"/>
      <point x="652.6800000000001" y="273.0" type="curve" smooth="yes"/>
      <point x="652.6800000000001" y="449.488"/>
      <point x="519.99933823466" y="558.0"/>
      <point x="332.91999999999996" y="558.0" type="curve" smooth="yes"/>
      <point x="145.84066176534003" y="558.0"/>
      <point x="13.159999999999993" y="449.488"/>
      <point x="13.159999999999993" y="273.0" type="curve" smooth="yes"/>
      <point x="13.159999999999993" y="97.34400000000001"/>
      <point x="146.22000000000003" y="-11.168000000000001"/>
    </contour>
    <contour>
      <point x="286.35999999999996" y="234.86400000000003" type="curve" smooth="yes"/>
      <point x="286.35999999999996" y="367.152"/>
      <point x="295.98" y="407.89599999999996"/>
      <point x="332.91999999999996" y="431.08" type="curve" smooth="yes"/>
      <point x="369.8599999999999" y="454.096"/>
      <point x="379.48" y="443.592"/>
      <point x="379.48" y="311.304" type="curve" smooth="yes"/>
      <point x="379.48" y="179.848"/>
      <point x="369.86" y="138.7680000000001"/>
      <point x="332.91999999999996" y="115.75200000000001" type="curve" smooth="yes"/>
      <point x="295.98" y="92.4"/>
      <point x="286.36" y="103.408"/>
    </contour>
  </outline>
</glyph>
<glyph name="zero.slashlin" format="2">
  <advance width="665.8399999999999"/>
  <outline>
    <contour>
      <point x="471.05999999999995" y="524.168" type="line"/>
      <point x="196.32" y="286.75199999999995" type="line"/>
      <point x="196.32" y="184.16799999999998" type="line"/>
      <point x="471.05999999999995" y="421.08" type="line"/>
    </contour>
    <contour>
      <point x="332.91999999999996" y="-10.831999999999999" type="curve" smooth="yes"/>
      <point x="519.62" y="-10.831999999999999"/>
      <point x="652.6800000000001" y="128.184"/>
      <point x="652.6800000000001" y="354.168" type="curve" smooth="yes"/>
      <point x="652.6800000000001" y="581.984"/>
      <point x="519.62" y="720.0"/>
      <point x="332.91999999999996" y="720.0" type="curve" smooth="yes"/>
      <point x="146.22000000000003" y="720.0"/>
      <point x="13.160000000000004" y="581.984"/>
      <point x="13.160000000000004" y="354.168" type="curve" smooth="yes"/>
      <point x="13.160000000000004" y="128.184"/>
      <point x="146.22000000000003" y="-10.831999999999999"/>
    </contour>
    <contour>
      <point x="332.91999999999996" y="78.28800000000001" type="curve" smooth="yes"/>
      <point x="286.4389743589743" y="78.28800000000001"/>
      <point x="274.74" y="132.22400000000002"/>
      <point x="274.74" y="354.168" type="curve" smooth="yes"/>
      <point x="274.74" y="579.44"/>
      <point x="286.4389743589743" y="630.88"/>
      <point x="332.91999999999996" y="630.88" type="curve" smooth="yes"/>
      <point x="380.79589743589736" y="630.88"/>
      <point x="391.1" y="579.44"/>
      <point x="391.1" y="354.168" type="curve" smooth="yes"/>
      <point x="391.1" y="132.22400000000002"/>
      <point x="379.40102564102557" y="78.28800000000001"/>
    </contour>
  </outline>
</glyph>
